<svg xmlns="http://www.w3.org/2000/svg" viewBox="0.68 680.99 1535.01 173.56"><path fill="#d00000" d="M536.309 751.121c-1.54 2.492-43.028 1.883-45.579-.648-.886-.891-.128-1.598 1.653-1.598a3.6 3.6 0 0 0 1.34-.422 3.6 3.6 0 0 0 1.082-.89 3.6 3.6 0 0 0 .668-1.235 3.6 3.6 0 0 0 .156-1.394 5.85 5.85 0 0 1 2.086-4.325q.638-.533 1.394-.867c1.914-.683 2.438-2.351 1.16-3.71-1.308-1.395-3.902-.278-5.988 2.562-2.144 2.933-4.406 3.87-5.406 2.265-.941-1.523.055-3.8 2.23-5.047 3.38-1.925 3.391-2.769.06-5.843-3.188-2.942-3.884-2.867-3.884.379 0 2.175-2.511 4.609-5.57 5.406-6.172 1.625-6.274 1.492-3.883-4.738.926-2.407 2.813-3.684 4.176-2.844 1.375.855 2.492.363 2.492-1.086 0-1.438-2.578-3.293-5.726-4.117-5.004-1.305-5.625-.375-4.868 7.336.461 4.855 2.36 8.828 4.184 8.828q1.95.28 3.703 1.176a11.8 11.8 0 0 1 3.125 2.304c2.336 2.332 2.465 3.477.363 3.477a5.6 5.6 0 0 1-1.441-.371 5.7 5.7 0 0 1-1.293-.742 5.6 5.6 0 0 1-1.047-1.063 5.4 5.4 0 0 1-.726-1.3c-.766-1.915-1.504-.118-1.622 4-.203 6.816-5.785 14.671-5.785 8.148 0-1.54-2.508-2.305-5.566-1.711-3.059.578-5.567-.305-5.567-1.989 0-1.68-2.48-.812-5.492 1.93-3.035 2.727-4.843 6.059-4.015 7.38q.586 1.34.476 2.8a5.75 5.75 0 0 1-.902 2.691c-1.317 2.149-2.625 1.946-4.29-.691-1.913-3.004-2.405-3.035-2.433-.137-.031 2.008-1.293 2.875-2.828 1.934-3.074-1.903-3.828-16.137-1.004-18.95 3.496-3.496 6.805 1.395 3.582 5.274-5.492 6.617 2.973 4.785 8.774-1.895 3.941-4.554 6.898-5.406 13.554-3.96 4.668 1.03 8.493 1.09 8.493.144 0-4.07-10.915-12.957-16.41-13.379-3.301-.246-5.477-1.797-4.844-3.45.64-1.667-1.504-3.218-4.766-3.464-4.656-.348-5.031.102-1.797 2.102 3.117 1.93 3.332 3.32.883 5.77-2.434 2.437-4.754 1.796-9.54-2.669-3.48-3.246-8.28-5.8-10.667-5.664-3.043.145-3.262.649-.754 1.649 2.68 1.09 2.813 2.39.492 5.191q-.691.773-1.578 1.316a7.12 7.12 0 0 1-3.934 1.059 7 7 0 0 1-2.027-.348c-2.8-1.07-3.726-.562-2.52 1.38a3.314 3.314 0 0 1 .613 2.445q-.088.646-.417 1.21a3.4 3.4 0 0 1-.852.97c-1.39.87-3.214-.204-4.043-2.38-.882-2.289-3.757-3.347-6.875-2.535-3.289.856-6-.305-7.043-3-.925-2.422-3.101-4.394-4.859-4.394-1.734 0-2.402 1.972-1.46 4.41 1.073 2.808.433 3.941-1.798 3.129a4.2 4.2 0 0 1-1.238-.657 4.1 4.1 0 0 1-.941-1.039 4 4 0 0 1-.536-1.297 3.9 3.9 0 0 1-.066-1.398c.766-3.496-9.11-2.758-12.457.926-1.188 1.305-.594 1.476 1.32.375 2.074-1.188 3.48-.434 3.48 1.87 0 6.25-3.148 7.626-7.495 3.278-4.668-4.668-9.207-5.293-9.207-1.246 0 1.52-1.883 2.781-4.172 2.781-2.293 0-4.176-1.261-4.176-2.78 0-1.54-2.016-2.786-4.48-2.786-2.754 0-3.872-1.55-2.915-4.043 1.059-2.754.204-3.523-2.683-2.406-2.985 1.144-3.348 2.48-1.246 4.578a9.75 9.75 0 0 1 2.972 4.742c0 2.277-10.449 1.524-12.902-.941-1.043-1.047-3.562-.508-5.594 1.187a8.6 8.6 0 0 1-3.73 1.68 8.57 8.57 0 0 1-4.086-.203c-2.274-.867-4.883-.36-5.797 1.133a2.9 2.9 0 0 1-.719.898 2.9 2.9 0 0 1-1.004.559 2.98 2.98 0 0 1-2.254-.164c-1.253-.786-3.039.503-3.953 2.882-.898 2.364-.48 3.567.957 2.684 2.914-1.8 1.391 9.453-1.64 12.144-1.059.93-1.13-.492-.176-3.156 1.191-3.293.363-4.875-2.504-4.875-2.492 0-3.96 2.016-3.523 4.875.421 2.664-.97 8-3.059 11.828-3.508 6.407-3.45 6.653.887 3.07 2.578-2.128 5.55-3.027 6.578-2 1.027 1.032 3.332-.85 5.117-4.187 3.133-5.844 3.293-5.742 4.54 2.696.71 4.816.952 8.773.55 8.773a81 81 0 0 1-7.774-2.684c-4.62-1.754-7.636-1.71-8.77.133-2.577 4.172-9.593-2.555-7.737-7.398a7.6 7.6 0 0 1 1.054-1.633 7.63 7.63 0 0 1 5.05-2.672c3.88-.273 3.825-.508-.335-1.594-2.7-.71-4.203-2.422-3.336-3.828.856-1.39-.246-1.84-2.48-.984q-.75.327-1.563.402a4.99 4.99 0 0 1-4.308-1.824c-2.942-4.766-7.075-3.434-5.118 1.652 1.207 3.133.715 3.973-1.507 2.61-1.809-1.118-6.551.539-10.54 3.683-7.058 5.54-14.015 5.438-10.55-.172.937-1.527-.918-3.465-4.133-4.308a8 8 0 0 1-2.367-1.004 8 8 0 0 1-3.196-3.938 8 8 0 0 1-.5-2.523c-.113-3.262-.851-4.363-1.62-2.45-.77 1.915-3.696 3.477-6.508 3.477-2.813 0-5.598 1.469-6.192 3.25-.652 1.953-6.219 3.059-14.004 2.77-9.726-.364-13.61.71-15.758 4.39-1.566 2.696-2.886 3.582-2.93 1.973a10.7 10.7 0 0 1 1.102-3.402 10.8 10.8 0 0 1 2.145-2.864c4.656-4.648-.809-4.027-7.219.844-2.91 2.188-6.418 3.293-7.797 2.434-1.39-.852-2.148 1.96-1.683 6.25.613 5.62-.52 8.09-4.028 8.812-2.683.551-4.87-.418-4.87-2.16 0-1.723 1.23-2.375 2.753-1.45 1.504.942 2.117.075 1.36-1.91-2.692-7.034-33.848-7.019-40.88.009-4.449 4.457-11.495 4.238-9.769-.29.813-2.082-.77-3.765-3.71-3.984-3.25-.246-4.583 1.004-3.653 3.395.969 2.55-1.149 4.086-6.426 4.695-4.332.496-7.871 2.062-7.871 3.465 0 3.797 27.457 4.347 29.879.597 1.476-2.28 2.058-2.19 2.086.317.031 1.914 3.176 3.48 7.004 3.48 3.824 0 6.957 1.391 6.957 3.086 0 1.957-2.782 2.407-7.653 1.203-7.105-1.738-7.265-1.593-2.363 2.059 2.914 2.176 4.406 5.379 3.316 7.148-1.085 1.75-.449 3.204 1.438 3.204 1.871 0 2.668.738 1.754 1.636-2.277 2.293-13.192-1.449-13.192-4.52 0-1.378 2.192-1.726 4.872-.784 4.293 1.539 4.23 1.101-.461-3.567-4.282-4.234-9.164-5.23-24.516-5.031-10.543.129-18.008-.488-16.602-1.39 3.278-2.118 7.102-14.18 4.493-14.18-1.086 0-3.766 2.191-5.954 4.875-2.207 2.68-3.074 3.086-1.933.91 1.582-3.047.555-2.914-4.402.566-4.829 3.375-7.801 3.797-11.805 1.653-4.797-2.567-5.027-2.278-2.258 2.914 2.637 4.93 2.305 5.785-2.336 5.785-2.984 0-5.855-1.25-6.363-2.785-1.406-4.204-17.688-8.118-22.121-5.309-2.989 1.887-2.598 2.527 1.71 2.8q4.207.249 8.348 1.016c1.54.348 4.352.84 6.266 1.075 1.91.226 3.477 1.566 3.477 2.957 0 1.418-3.375 1.636-7.653.476a41.3 41.3 0 0 0-16.687-.058c-5.13 1.144-8.364.945-7.48-.477 1.812-2.93.495-3.105-5.595-.77-3.468 1.333-3.757 2.594-1.277 5.567 3.785 4.582 1.422 4.957-6.031.973-4.524-2.422-5.379-1.946-5.379 2.957 0 3.234-1.262 5.043-2.828 4.074a3.2 3.2 0 0 1-.942-.809 3.1 3.1 0 0 1-.562-1.11 3.1 3.1 0 0 1-.102-1.234q.07-.632.375-1.183c2.32-3.754-2.578-3.188-6.523.738-4.39 4.395-4.293 8.684.148 6.133 2.012-1.176 2.504-.941 1.157.52a8.3 8.3 0 0 1-2.438 1.75 8.3 8.3 0 0 1-2.894.789c-.48.058-.938.187-1.383.379a5.02 5.02 0 0 0-2.793 3.101c-.637 1.914.273 3.48 2.043 3.48 1.867 0 2.508 2.172 1.535 5.231q-1.653 5.245 3.293 7.262c4.61 1.87 4.566 2.176-.61 4.304-5.324 2.192-5.292 2.309.61 2.496 4.45.13 5.695 1.422 4.476 4.598-1.359 3.55-2.144 3.684-4.043.695-1.683-2.668-2.359-1.94-2.39 2.551-.031 3.45 1.203 6.262 2.738 6.262 1.54 0 2.785 1.887 2.785 4.176v.015c0 5.797 8.13 5.246 10.32-.699 2.637-7.129 6.782-9.027 12.758-5.84 5.727 3.07 18.672.985 18.672-3 0-1.363-2.191-2.148-4.87-1.742s-3.305.192-1.391-.46c4.07-1.407 4.566-5.352.93-7.598-1.395-.868-3.106 0-3.786 1.914-.7 1.941-2.047 2.785-3.004 1.91-.953-.883.711-4.23 3.711-7.45 3.844-4.132 4.453-6.261 2.059-7.234-1.871-.754-.739-1.476 2.496-1.594 5.043-.187 5.84 1.274 5.566 10.22l-.32 10.44 11.133-.988c13.41-1.172 17.18-3.101 12.164-6.207-2.64-1.62-1.957-2.172 2.293-1.855 3.316.25 5.812 1.133 5.535 1.976-.273.825.437 1.809 1.582 2.2 5.043 1.687 7.652.378 7.652-3.825 0-3.886.653-3.988 4.715-.695 3.203 2.594 4.028 2.711 2.621.344-1.32-2.184-.492-3.477 2.246-3.477q.457.03.895.149a4.71 4.71 0 0 1 3.21 2.941q.153.428.223.879.07.446.051.902c.031 3.64.625 3.946 2.352 1.246 1.258-2 3.43-3.394 4.824-3.113 1.39.29 6.668-.437 11.727-1.625 6.308-1.469 8.714-3.379 7.687-6.078-.844-2.187-.293-3.187 1.23-2.246a7.96 7.96 0 0 1 2.079 2.816 7.9 7.9 0 0 1 .675 3.434c0 3.812.653 3.668 4.09-.871 2.305-3.043 4.118-3.883 4.176-1.914q-.031.645.184 1.25a3.32 3.32 0 0 0 1.629 1.875q.575.298 1.214.355c1.622 0 2.102-1.39 1.043-3.086-1.277-2.078.032-2.465 4-1.203 4.7 1.492 5.543.942 4.133-2.715a5.556 5.556 0 0 0-1.102-1.793 6 6 0 0 0-.788-.703 6 6 0 0 0-.914-.539 5.6 5.6 0 0 0-.997-.351 6 6 0 0 0-1.046-.153c-.356-.015-.707 0-1.055.055q-.529.077-1.027.254c-5.782 1.508-6.438-.262-2.36-6.465 2.348-3.598 3.102-3.625 5.29-.219 3.554 5.524 13.28 6.508 15.175 1.551.871-2.277 2.918-4.117 4.555-4.117 2.074 0 2.101 1.625.086 5.379-4.032 7.523-3.77 7.93 4.148 6.422 6.274-1.203 6.535-1.707 2.39-4.743-4.304-3.14-4.288-3.52.173-5.23 2.656-1.031 6.175-1.031 7.828 0 1.828 1.129 2.394.246 1.437-2.219-.855-2.246.235-7.144 2.434-10.902l3.988-6.813-1.8 6.957c-1.739 6.77-1.68 6.817 2.581 1.395 4.309-5.469 4.38-5.453 4.684 1.39.176 3.825.941 5.391 1.71 3.481q.48-1.365 1.587-2.297a5.24 5.24 0 0 1 2.527-1.183c1.496 0 1.832 1.449.742 3.218-1.246 2-.765 2.45 1.266 1.188a3.5 3.5 0 0 0 1.078-.863q.456-.542.672-1.211a3.5 3.5 0 0 0 .168-1.375 3.6 3.6 0 0 0-.367-1.336c-.946-1.535.91-3.465 4.129-4.305 6.175-1.621 8.289-7.09 2.363-6.133q-4.335.206-8.309-1.55c-4.406-1.93-4.289-2.579 1.39-7.423l6.224-5.292-7.711 1.234c-4.47.71-7.02.113-6.078-1.422a3 3 0 0 1 .812-.89 3.1 3.1 0 0 1 1.086-.512 3.12 3.12 0 0 1 2.336.343c1.437.887 2.594.274 2.594-1.347 0-4.899 5.074-3.29 6.816 2.16.883 2.812 3.477 5.101 5.754 5.101 5.348 0 5.332-3.578-.043-5.64-2.29-.883-4.176-2.883-4.176-4.465 0-1.562 3.117-.129 6.946 3.195 7.738 6.739 7.64 7.493-1.38 9.23-9.902 1.915-10.265 4.29-.464 3.15 8.554-1.005 11.683 1.71 6.031 5.202a6.17 6.17 0 0 0-1.926 2.196 6.1 6.1 0 0 0-.71 2.832c.085 1.832 2.113.508 4.507-2.938 4.395-6.293 11.324-9.078 7.61-3.047-1.192 1.914-.766 2.45 1.03 1.348a3.457 3.457 0 0 1 3.816.008q.57.38.95.949a5.9 5.9 0 0 0 1.825 1.895 5.86 5.86 0 0 0 2.457.933c3.086 0 .054-8.988-3.914-11.644-1.903-1.27-1.567-4.348.98-9.102 2.773-5.176 4.469-6.207 6.031-3.668a8.5 8.5 0 0 0 2.168 2.43 8.6 8.6 0 0 0 2.91 1.457c1.579.187 4.2.504 5.829.695 1.62.188 2.187 1.578 1.246 3.102-.973 1.582.144 2.043 2.62 1.086 2.38-.914 4.321-.403 4.321 1.132 0 4.942-7.55 5.856-13.55 1.637-5.208-3.637-5.673-3.61-4.208.219.914 2.363 2.77 4.305 4.149 4.305 1.359 0 2.476 1.957 2.476 4.336 0 2.394-1.117 3.652-2.465 2.812-1.359-.844-2.304.652-2.09 3.316.25 3.149-1.3 4.57-4.449 4.032-7.074-1.172-3.172 6.843 4.282 8.8 3.3.872 7.23.364 8.707-1.113 3.554-3.566 10.746-3.484 8.543.086-.946 1.535-.391 2.781 1.23 2.781a2.7 2.7 0 0 0 1.059-.132 2.773 2.773 0 0 0 1.594-1.363c.163-.325.261-.665.288-1.028 0-1.39 2.817-1.984 6.266-1.316l6.262 1.214-6.262-2.765c-9.25-4.106-7.64-6.09 4.176-5.164 5.797.449 11.144 2.582 12.031 4.785 1.317 3.262 1.91 3.16 3.348-.567 2.465-6.418-11.598-13.351-18.672-9.175-3.84 2.261-5.406 2.074-6.45-.809-1.077-2.957-1.843-3.035-3.523-.32-1.554 2.52-3.015 1.84-5.32-2.465-4.043-7.567 1.027-8.164 9.031-1.07 4.027 3.562 5.828 3.937 6.711 1.39a5.6 5.6 0 0 1 3.367-3.187 5.6 5.6 0 0 1 1.563-.293 6.43 6.43 0 0 1 3.125 1.039 6.4 6.4 0 0 1 1.262 1.078q.561.62.949 1.363c1.304 2.781 1.941 2.781 3.246 0 1.93-4.133 11.25-4.64 13.656-.758.91 1.496.156 5.567-1.7 9.047-2.956 5.567-2.835 5.903.915 2.801a9.7 9.7 0 0 1 1.902-1.223 9.697 9.697 0 0 1 6.621-.68c2.336.9 5.106.262 6.133-1.421 1.031-1.664.844-2.852-.418-2.637-6.625 1.145-8.86-1.043-8.64-8.512.128-4.55 1.347-7.566 2.71-6.722 1.364.84 1.668 4.086.665 7.203-1.2 3.785-.766 5.047 1.277 3.785 4.207-2.594 3.918-14.7-.387-16.441-1.918-.77-.601-1.508 2.938-1.621 4.12-.145 5.715-1.38 4.453-3.438-1.192-1.93-.77-2.45 1.058-1.336 1.664 1.047 4.32-.328 5.899-3.043 2.742-4.683 2.887-4.683 2.96.102.04 2.77 1.333 4.261 2.868 3.32s2.785-.32 2.785 1.39c0 1.712 1.274 2.32 2.828 1.364q.532-.269.93-.719.394-.45.59-1.02a3 3 0 0 0 .168-1.163 3 3 0 0 0-.285-1.145c-.782-1.27.71-3.125 3.32-4.129 3.133-1.187 6.41.363 9.672 4.578l4.914 6.41.07-7.652c.027-4.277-1.476-7.672-3.418-7.7-2.715-.042-2.683-.55.098-2.32a5.91 5.91 0 0 0 2.223-5.058 6 6 0 0 0-.438-1.856c-1.363-3.535-.219-4.64 4.766-4.593 3.613.015 5.277.957 3.703 2.086-4.121 2.925-3.395 8.757 1.476 11.843 3.465 2.188 3.262 2.641-1.234 2.68-5.16.047-5.176.207-.348 3.727 7.149 5.234 3.657 15.816-4.523 13.687-4.133-1.086-5.274-.555-3.828 1.797 1.133 1.84.508 5.219-1.407 7.512-2.77 3.332-2.722 4.84.176 7.535 2.887 2.672 3.336 2.496 2.172-.828-1.883-5.45 3.582-10.434 10.34-9.45a16.25 16.25 0 0 0 9.64-2.046c3.696-2.418 3.626-2.61-.55-1.317-3.86 1.203-4.871-.144-4.871-6.449 0-7.96 5.738-12.89 13.496-11.598 2.07.344 2.941-.714 1.926-2.351-1.012-1.625-.61-2.957.886-2.957q1.424.252 2.532 1.183a5.3 5.3 0 0 1 1.586 2.297c.867 2.16 1.476 1.723 1.62-1.16a6.57 6.57 0 0 0-1.831-4.984 6.5 6.5 0 0 0-1.426-1.121c-1.914-.793.535-1.258 5.449-1.028 4.902.22 8.395.942 7.754 1.582-.652.653.074 3.52 1.61 6.38 2.218 4.144 1.769 5.261-2.188 5.523-4.653.3-4.653.402-.102 1.593 4.785 1.247 6.031 4.13 5.016 11.582-.29 2.07.707 3 2.219 2.07a3.025 3.025 0 0 1 1.918-.285q.322.06.628.188c.204.086.391.195.57.324a2.9 2.9 0 0 1 .872.97q.164.29.258.605c.843 1.925.812.054-.055-4.145-1.379-6.629-.715-7.672 4.969-7.703 5.261-.04 5.738-.578 2.394-2.738-3.379-2.188-2.972-2.707 2.086-2.739 6.973-.058 7.426.93 3.668 7.942-3.23 6.062.653 13.02 5.582 9.976 2.707-1.68 2.274-2.726-1.785-4.234-5.172-1.926-5.172-2.086-.23-4.102 2.914-1.175 5.941-.828 6.957.797 1 1.578 5.57 2.32 10.164 1.61q6.573-1.015 13.222-1.262c2.68 0 4.868-.953 4.868-2.129 0-1.191 1.886-2.148 4.175-2.148 6.293 0 5.02 4.48-2.086 7.308-5.496 2.176-5.144 2.418 2.786 1.985 4.968-.258 9.027-1.45 9.043-2.606 0-1.18 5.945-1.934 13.222-1.684 27.7.942 31.313.176 31.313-6.773 0-3.523-1.246-7.894-2.785-9.742-2.032-2.434-1.872-2.578.55-.547 5.367 4.465 7.094 3.32 8.395-5.57 1.148-7.825-1.301-11.176-4.45-6.102m-77.024-13.379c3.149 0 5.727 1.246 5.727 2.781 0 1.54-1.809 2.786-4.016 2.786a7.2 7.2 0 0 1-3.18-.739 7.3 7.3 0 0 1-2.546-2.047c-.942-1.535.855-2.78 4.015-2.78M22.38 804.57c1.656-2.62 3.45-3.144 4.871-1.39 1.246 1.508 1.727 2.465 1.09 2.101-.64-.36-2.813 1.524-4.828 4.176-4.176 5.496-5.117 1.422-1.133-4.887m18.324 12.688c-6.074 4.48-6.379 4.508-14.074 1.203-6.293-2.711-3.711-3.625 7.969-2.844 5.195.363 7.308-.52 6.062-2.52a3.87 3.87 0 0 0-2.344-1.644 3.8 3.8 0 0 0-1.453-.062q-.734.104-1.375.472c-2.222 1.25-2.16.625.188-1.898 2.808-3.028 4.144-3.074 6.957-.219 2.785 2.828 2.406 4.309-1.93 7.512m15.309-15.5c-1.102 0-2.016-1.883-2.016-4.172a3.9 3.9 0 0 1 .203-1.512 3.9 3.9 0 0 1 .758-1.32q.505-.586 1.2-.934a3.9 3.9 0 0 1 1.468-.41c2.07 0 2.941 1.781 2.016 4.176-.875 2.289-2.512 4.172-3.63 4.172m10.816 33.402c-1.621 0-2.176-1.246-1.234-2.781.945-1.54 2.277-2.785 2.945-2.785.684 0 1.23 1.246 1.23 2.785a2.8 2.8 0 0 1-.25 1.086 2.8 2.8 0 0 1-.644.914 2.9 2.9 0 0 1-.945.594q-.534.204-1.102.187m5.727-9.64c0 .812-2.422.187-5.364-1.395-4.265-2.273-5.625-1.867-6.64 2.004-.973 3.738-1.352 3.45-1.594-1.25-.352-6.52 3.172-10.348 6.48-7.043q1.93 1.816 4.567 2.016a2.35 2.35 0 0 1 1.7.527q.355.29.577.7.222.405.274.862Zm5.07-23.063c-1.898 3.45-3.14 7.828-2.75 9.742.84 4.13-1.309 4.594-3.668.77-.914-1.485.402-5.871 2.941-9.742 5.711-8.715 8.192-9.27 3.477-.77m13.453 25.106c-.766 1.886-1.328-.333-1.285-4.926.055-4.598.68-6.133 1.39-3.422a15.53 15.53 0 0 1-.105 8.347m5.426-7.942c-1.031-2.715-.406-3.988 1.625-3.305a7.8 7.8 0 0 1 2.652 1.75 7.8 7.8 0 0 1 1.75 2.653c1.668 5.02-4.086 3.96-6.027-1.098m-1.684-15.125c-3.71-2.433-3.71-3.039 0-5.476a16.86 16.86 0 0 1 8.352-2.594q4.173.152-1.188 2.261c-4.988 1.954-5.035 2.231-.449 3.985 2.707 1.043 6.055 1.187 7.45.32 1.39-.855 2.535-.23 2.535 1.39 0 3.696-11.133 3.77-16.7.114m34.457 12.313c-2.418.925-3.39.402-2.347-1.293 2.652-4.29-4-10.86-9.348-9.203-3.855 1.187-3.8.882.348-1.786 3.578-2.289 6.043-2.363 8.61-.23 1.972 1.637 4.147 2.422 4.827 1.738.696-.695 1.434 1.102 1.653 3.973a6.8 6.8 0 0 1-.122 2.047 6.9 6.9 0 0 1-1.953 3.554 6.8 6.8 0 0 1-1.668 1.2m13.036-1.133c-1.438 0-2.434-2.418-2.204-5.38.45-6.058 4.813-4.827 4.813 1.364 0 2.219-1.172 4.016-2.61 4.016m18.457-40.762c1.824-.742 2.648-3.453 1.824-6.031-1.23-3.887-1-4 1.363-.653 1.582 2.22 2.246 5.043 1.492 6.258a5.4 5.4 0 0 1-2.097 1.57 5.4 5.4 0 0 1-2.582.43c-2.57-.168-2.555-.531 0-1.574m10.289 2.258c.336.508-2.274 3.945-5.809 7.629-5.02 5.246-6.41 5.726-6.41 2.187 0-3.902 10.539-12.363 12.219-9.816m18.8 11.629c-3.504 3.738-5.422 8.379-4.464 10.86 1.757 4.577-2.23 8.796-5.375 5.648-2.422-2.418-9.844-4-17.7-3.778-3.453.082-6.265-1.004-6.265-2.426 0-5.074 5.132-5.597 14.922-1.507 12.406 5.191 11.445 5.41 11.925-2.782.25-4.48-.722-6.293-2.785-5.117-1.75 1-2.258.797-1.125-.465 1.14-1.246.738-3.87-.898-5.843-2.309-2.782-1.239-3.336 4.898-2.536 4.32.579 9.016 1.118 10.422 1.23 1.418.106-.172 3.134-3.555 6.716m90.52-9.309a4.706 4.706 0 0 1-2.617-.855 4.6 4.6 0 0 1-.703-.614 5 5 0 0 1-.57-.734 4.7 4.7 0 0 1-.65-1.734 5 5 0 0 1-.054-.93c.031-2.785.93-3.687 2.117-2.09a34 34 0 0 0 4.594 4.871c1.39 1.145.438 2.086-2.117 2.086m1.48-11.133a12.4 12.4 0 0 0-4.058.692 12.3 12.3 0 0 0-3.61 1.976q-.649.545-1.433.86c-.52.21-1.063.34-1.625.379a5.4 5.4 0 0 1-1.664-.141 5.4 5.4 0 0 1-1.54-.648c-5.003-3.102 1.68-8.282 9.13-7.09 3.03.48 6.453-.61 7.613-2.45 1.433-2.234 2.129-1.738 2.16 1.551.012.328-.008.657-.066.977a4.6 4.6 0 0 1-.72 1.808 4.6 4.6 0 0 1-1.39 1.364q-.41.264-.875.433-.457.176-.945.246a5 5 0 0 1-.977.043m9.352 13.918c-2.379 0-4.336-1.25-4.336-2.785-.012-.36.047-.703.176-1.039a2.7 2.7 0 0 1 2.449-1.742q1.343.163 2.484.894a5.9 5.9 0 0 1 1.848 1.887c.945 1.535-.227 2.785-2.621 2.785m17.394-.086c-2.582.04-5.523-1.25-6.535-2.89-3.03-4.899.157-5.594 5.883-1.258 4.711 3.562 4.785 4.074.652 4.148m40.895-19.398c-2.29 0-4.172-1.25-4.172-2.785s1.883-2.785 4.172-2.785c2.293 0 4.176 1.25 4.176 2.785s-1.883 2.785-4.176 2.785m38.605-18.168a10.3 10.3 0 0 1-2.148 3.129c-.91.91-1.953 1.629-3.129 2.148-2.406.93-3.273.059-2.348-2.343a10.3 10.3 0 0 1 2.153-3.13q1.365-1.367 3.129-2.148c2.402-.93 3.27-.062 2.343 2.344m11.352 4.004a5.3 5.3 0 0 1-.441-1.598 5.374 5.374 0 0 1 .637-3.215 5.3 5.3 0 0 1 1.023-1.304c2.273-2.278 3.101-1.477 3.101 3.031 0 6.71-1.449 7.75-4.32 3.086m30.906 15.219c-2.797-1.07-4.32-.082-4.32 2.816 0 7.64-6.926 4.899-7.39-2.914-.235-4.133.476-5.93 1.62-4.074q.559.702 1.309 1.187a5.4 5.4 0 0 0 1.621.707 5.438 5.438 0 0 0 3.48-.27c2.403-.913 5.188-.35 6.188 1.274 1.106 1.785.117 2.293-2.508 1.274m7.567-26.106c-1.29 0-2.203 4.38-2.028 9.742.348 10.38-.707 12.266-3.234 5.696-1.246-3.235-2.606-3.39-6.797-.77-4.062 2.54-6.031 2.512-8.672-.129-2.676-2.683-2.113-3.406 2.73-3.406 3.364 0 5.97-.941 5.782-2.086-.84-5.32.652-6.684 4.129-3.8 3.078 2.554 3.543 1.827 2.453-3.825-1.305-6.89 2.887-9.687 6.277-4.207.942 1.535.668 2.785-.64 2.785m44.55 12.219c.723-.723 2.075.61 2.973 2.973 1.887 4.898.274 5.77-2.465 1.32-1.015-1.625-1.23-3.567-.508-4.293m1.32 18.351c-5.062-.027-5.464-.546-2.09-2.738 5.395-3.492 8.353-3.492 8.353 0 0 1.54-2.813 2.77-6.262 2.739m19.528 2.829c-1.898 3.058-5.031 5.57-6.945 5.57-2.363 0-1.942-1.797 1.293-5.57 2.61-3.059 5.738-5.567 6.941-5.567s.625 2.508-1.289 5.567m4.942 5.757a2.92 2.92 0 0 1 .77-4.046c1.304-.813 2.362.363 2.362 2.578 0 4.699-.882 5.105-3.132 1.468m13.527-1.117c-2.016 0-2.942-1.148-2.09-2.539.875-1.402-1.07-4.39-4.289-6.652-6.25-4.375-7.8-9.367-2.93-9.367 1.625 0 2.063 1.453.961 3.218-1.363 2.22-.105 2.73 4.016 1.657 3.3-.86 6.16-.743 6.363.257.184 1 .637 4.438.985 7.63.347 3.245-.97 5.796-3.016 5.796m0 0"/><path fill="#d00000" d="M195.04 812.895c-1.438 0-3.935 2.476-5.556 5.503-2.363 4.41-2.144 5.196 1.09 3.961 4.684-1.8 8.29-9.464 4.465-9.464M208.941 817.066c-1.539-.941-2.785-.386-2.785 1.235q-.013.57.192 1.097a2.87 2.87 0 0 0 2.593 1.844c1.536 0 2.782-.547 2.782-1.23 0-.668-1.246-2-2.782-2.946M243.89 797.586l-1.117 6.957c-1.043 6.465-1.285 6.57-3.359 1.39-2.133-5.277-2.262-5.245-2.45.7-.132 4.32 1.423 6.262 4.99 6.262 4.183 0 4.866-1.47 3.562-7.653ZM227.207 803.73c-1.508 3.961-1.187 4.278 1.566 1.551 1.895-1.886 2.754-4.129 1.895-4.988-.852-.856-2.418.684-3.461 3.437M1461.64 800.309c-3.203 1.015-5.1 3.015-4.218 4.437 2.16 3.492 8.86 3.262 11.121-.394 2.71-4.375-.305-6.13-6.902-4.043M1487.91 800.758c-2.289-.883-4.176-.39-4.176 1.086 0 1.48 1.887 2.699 4.176 2.699s4.176-.492 4.176-1.09c0-.605-1.887-1.824-4.176-2.695M1451.84 788.352c-8.406-1.047-8.828-3.262-1.957-10.457 4.133-4.332 4.406-5.899 1.437-8.145a4.5 4.5 0 0 1-.761-.598 4.4 4.4 0 0 1-.621-.746 4.5 4.5 0 0 1-.454-.855 4.6 4.6 0 0 1-.32-1.903 4.69 4.69 0 0 1 .484-1.867q.223-.434.528-.816c2.16-3.434 3.23-3.45 7.594-.086 2.8 2.148 4.16 2.812 3.03 1.465-1.144-1.332-.507-4.352 1.391-6.7 2.758-3.406 2.743-3.855-.027-2.19-2.004 1.206-3.48.714-3.48-1.157 0-2.059-3.145-2.813-8.465-2.031-6.219.914-8.106.261-7.063-2.434.973-2.555-.488-3.32-4.754-2.523a757 757 0 0 1-7.39 1.363c-.668.117 1.086 1.883 3.914 3.957 3.262 2.39 4.304 5.09 2.851 7.426-1.648 2.68-.996 3.203 2.368 1.91 2.539-.985 4.62-.567 4.62.914s-2.812 2.71-6.257 2.742q-5.55.118-10.442 2.738c-3.363 2.176-2.914 2.707 2.246 2.739 3.641.027 5.672 1.277 4.684 2.87a3.28 3.28 0 0 1-2.023 1.489 3.3 3.3 0 0 1-1.282.063 3.2 3.2 0 0 1-1.203-.434c-2.984-1.844-13.554 6.422-13.554 10.598 0 3.058 12.136-.352 13.453-3.774q.492-1.072 1.476-1.722a4.06 4.06 0 0 1 2.16-.696c1.497 0 1.946 1.246 1.004 2.785-.945 1.535.387 2.782 2.957 2.782 3.782 0 4.028.785 1.317 4.058-1.856 2.219-2.551 5.352-1.567 6.961 2.426 3.899 4.41 3.68 3.555-.426-.379-1.808 1.637-3.808 4.508-4.433 3.433-.754 4.508-.028 3.191 2.133-1.324 2.132.028 1.988 3.953-.438 5.946-3.664 5.946-3.68-1.101-4.562M1464.25 792.176c0-.563-2.508-.38-5.566.422-3.059.812-5.567 2.609-5.567 4.015 0 1.418 2.492 1.23 5.567-.422 3.058-1.636 5.566-3.449 5.566-4.015M386.758 792.207c-1.492.926-4.395.29-6.434-1.406-2.77-2.305-4.074-2.192-5.09.449-.914 2.379 1.782 3.785 8.207 4.262 5.926.437 8.883-.364 7.797-2.133a3.3 3.3 0 0 0-3.273-1.582q-.645.087-1.207.41M400.98 775.605c-1.46 1.47-3.347 7.02-4.19 12.325-1.392 8.902-1.278 9.117 1.581 2.695 4.418-9.96 5.871-18.281 2.61-15.02m0 0"/><path fill="#d00000" d="m1423.04 790.96-7.497.321 8.348 2.13c4.593 1.171 8.742 2.273 9.203 2.448.48.188.09-.914-.852-2.449-.941-1.539-5.09-2.64-9.203-2.45M333.105 785.059c-.609 0-1.828 1.886-2.699 4.175-.883 2.29-.386 4.176 1.09 4.176 1.48 0 2.695-1.887 2.695-4.176s-.492-4.175-1.086-4.175M1476.805 784.102c.754-1 .566-1.247-.39-.536-.97.711-4.423.016-7.653-1.535-5.324-2.57-5.438-2.465-1.133 1.028 3.016 2.433 3.8 4.843 2.144 6.507-1.668 1.653.032 2.856 4.61 3.235 5.77.476 6.613-.16 4.148-3.133-1.71-2.043-2.48-4.55-1.726-5.566M1485.125 790.625c-.941 1.535-.387 2.785 1.234 2.785q.569.012 1.102-.187.531-.205.945-.598c.274-.258.492-.562.645-.91q.233-.522.25-1.09c0-1.535-.547-2.781-1.23-2.781-.669 0-2 1.246-2.946 2.781M356.258 779.492c-6.262 0-14.512 6.625-11.73 9.406 3.656 3.657 8.929 1.63 7.25-2.765-1.38-3.582-.497-4.102 4.261-2.594 3.582 1.129 5.988.691 5.988-1.074 0-1.64-2.593-2.973-5.77-2.973M1486.52 780.855c0-2.132 2.187-5.148 4.87-6.71 4.641-2.7 4.641-2.844 0-2.918-2.683-.04-4.87 1.246-4.87 2.859 0 1.621-.989 2.348-2.192 1.594-1.203-.742-2.45 1.754-2.77 5.554-.331 3.985.594 6.188 2.192 5.203a7.1 7.1 0 0 0 2.02-2.476q.726-1.47.75-3.106M1526.559 773.926c-.594 0-1.075 3.133-1.075 6.957 0 3.828 1.075 6.96 2.395 6.96 1.316 0 1.797-3.132 1.074-6.96-.73-3.824-1.816-6.957-2.394-6.957M1415.688 777.086c-2.887.55-5.774 2.582-6.407 4.496-1.656 4.969 3.508 4.305 7.91-1.02 3.235-3.882 3.036-4.363-1.504-3.476M1458.684 773.46c0 3.392-1.754 6.032-4.016 6.032a7.2 7.2 0 0 0-3.18.738 7.24 7.24 0 0 0-2.547 2.047c-.941 1.535.844 2.782 3.957 2.782 5.625 0 11.325-12.09 7.512-15.903-.941-.941-1.726.985-1.726 4.305M1489.3 783.973c0 .593 2.579 1.086 5.727 1.086 3.164 0 5.004-1.204 4.09-2.668-1.48-2.391-9.816-1.075-9.816 1.582M332.86 776.648c-2.32 1.946-4.235 4.004-4.235 4.586 0 3.118 5.234.371 6.73-3.523 1.461-3.832 1.055-4.004-2.496-1.063M341.313 776.71c-.668 0-2.004 1.247-2.946 2.782-.941 1.535-.39 2.785 1.235 2.785q.568.013 1.101-.191.529-.2.945-.594a2.88 2.88 0 0 0 .895-2c0-1.535-.55-2.781-1.23-2.781M1380.777 775.895c-3.043.8-4.914 2.437-4.175 3.656.753 1.219 3.859 1.55 6.902.754 3.047-.797 4.914-2.434 4.172-3.657-.75-1.203-3.856-1.55-6.899-.753M657.605 744.512l-7.496 1.722 6.957-5.726c5.02-4.13 9.551-5.36 16.239-4.39 7.855 1.144 8.754.726 5.914-2.696-1.84-2.219-2.422-4.031-1.278-4.031 1.149 0 .508-1.883-1.39-4.176a13 13 0 0 0-4.028-2.945 13 13 0 0 0-4.832-1.23c-2.957 0-4.609-1.247-3.668-2.782.946-1.535 4.149-2.785 7.122-2.785s5.406-1.157 5.406-2.578c0-1.422-3.758-2.106-8.352-1.524s-8.347.074-8.347-1.129-1.93-2.191-4.293-2.191c-2.434 0-3.68 1.613-2.871 3.71.78 2.048.523 3.712-.579 3.712-1.101.015-2.32 4.465-2.71 9.918-.438 6.191.359 9.246 2.132 8.144q.55-.306.95-.8c.261-.333.453-.704.566-1.11q.176-.607.105-1.238a3.2 3.2 0 0 0-.375-1.184c-.886-1.433.418-2.598 2.899-2.598 2.476 0 3.87-1.027 3.086-2.273-.766-1.262 2.289-1.738 6.8-1.086 4.508.664 8.204 2.45 8.204 3.984 0 1.567-3.028 2-6.973 1.016-4.754-1.203-6.754-.664-6.262 1.652q.071.33.067.664a2.984 2.984 0 0 1-.324 1.281q-.154.3-.372.555c-.14.172-.304.325-.484.457a2.8 2.8 0 0 1-.574.336q-.303.136-.637.196a3 3 0 0 1-.66.05c-2.047.07-5.324 2.317-7.277 5-4.305 5.883-8.32 6.438-6.165.84 1.032-2.695.207-3.523-2.492-2.492-4.883 1.883-5.308-2.23-.699-6.844q5.507-5.479-4.32-1.707a4.365 4.365 0 0 0-2.907 4.73q.06.427.2.837c.828 2.16.113 3.941-1.567 3.941a3 3 0 0 1-1.133-.172 2.924 2.924 0 0 1-1.668-1.504 2.9 2.9 0 0 1-.285-1.109 2.9 2.9 0 0 0-.289-1.11 2.92 2.92 0 0 0-1.668-1.503 2.9 2.9 0 0 0-1.132-.168c-1.68 0-2.395 1.793-1.536 3.984 1.145 3.004-.668 3.871-7.363 3.48-7.96-.449-8.805.215-8.02 6.45.61 4.914-1.347 2.87-6.656-6.957-4.129-7.653-8.593-14.336-9.91-14.844-1.32-.508-2.379-3.016-2.351-5.566.03-2.899.808-3.493 2.086-1.582 2.87 4.289 11.789 3.742 11.789-.739 0-4.261-.133-4.304-16.079-4.957-10.32-.437-12.136.364-13.527 5.946-1.765 7.027-11.394 8.851-17.031 3.214-2.453-2.449-4.32-2.32-7.727.508-3.8 3.145-4.918 3.102-7.047-.246-2.03-3.203-2.625-2.898-3 1.567a81 81 0 0 0-.246 9.742c.172 3.16-.695 2.926-3.554-.973-2.082-2.84-5.133-4.336-6.754-3.32-1.64 1.015-2.973.504-2.973-1.117 0-1.61 2.738-2.942 6.106-2.942 5.941 0 5.957-.101.695-3.972-4.871-3.579-5.758-3.32-8.887 2.609-6.77 12.816-.293 27.242 10.914 24.312 5.871-1.535 6.672-5.148 1.614-7.191-1.918-.77-.032-1.508 4.175-1.621 7.809-.219 9.606 2.16 5.157 6.883-1.461 1.55-1.407 5.468.144 9.523 2.145 5.613 3.117 6.133 5.191 2.785 1.567-2.535 1.524-4.453-.144-5.03a4.3 4.3 0 0 1-1.059-.61 4.22 4.22 0 0 1-1.406-1.973 4 4 0 0 1-.23-1.203c0-1.563 1.882-2.113 4.172-1.242 4.64 1.781 5.828-2.492 1.32-4.742-1.563-.77-1.246-1.09.695-.68 1.957.402 3.555 3.012 3.567 5.824 0 2.8 1.742 5.668 3.87 6.383 2.524.836 3.106.082 1.684-2.223-1.437-2.316-.855-3.043 1.696-2.156a5.5 5.5 0 0 1 2.578 2.563q.41.837.515 1.769a5.4 5.4 0 0 1-.093 1.84c-.668 3.652.437 4.41 4.535 3.105 3.629-1.148 6.004-.175 7.207 2.942.984 2.55 1.16 5.277.39 6.047-.77.765-2.175-.668-3.14-3.164-.961-2.504-2.934-3.825-4.383-2.926-1.45.898-8.942 1.93-16.668 2.304-13.586.668-19.863 4.668-17.399 11.09 1.465 3.797 15.383 4.043 14.016.246-.547-1.535-3.75-2.48-7.113-2.086-3.512.391-5.399-.507-4.41-2.09 3.074-4.972 25.847-3.331 29.008 2.09 2.699 4.641 2.843 4.641 2.917 0 .098-5.496 5.536-6.785 5.872-1.39.16 2.52.593 2.578 1.562.2.797-1.985 5.395-2.84 11.598-2.188 8.64.925 8.988.78 2.187-.899-7.316-1.797-13.219-11.73-6.972-11.73 1.39 0 2.539 1.668 2.539 3.715q.05.78.394 1.484a3.97 3.97 0 0 0 3.781 2.226c2.29 0 4.172-1.043 4.172-2.32s-1.402-2.32-3.117-2.32c-2.156 0-2.058-1.293.336-4.176 3.973-4.797 9.64-5.727 6.785-1.117-1.332 2.16-.133 2.133 4.016-.098 3.246-1.742 5.898-4.367 5.898-5.844a2.785 2.785 0 0 1 .836-1.918 2.76 2.76 0 0 1 1.95-.765c4.695 0 3.085 7.203-2.786 12.527-3.058 2.77-5.566 4.145-5.566 3.043 0-1.086-1.278-1.187-2.828-.23a3.28 3.28 0 0 0-1.489 2.03 3.4 3.4 0 0 0-.058 1.286q.099.645.433 1.207c1.043 1.684 3.594 1.074 6.536-1.594 2.656-2.41 5.855-3.422 7.117-2.261 1.277 1.144 1.469.609.437-1.207-2.754-4.782 3.32-7.508 8.032-3.594a9.446 9.446 0 0 0 3.988 1.84 9.3 9.3 0 0 0 2.207.172 9.2 9.2 0 0 0 2.183-.344c2.684-1.031 3.641-.54 2.508 1.305-1.011 1.64-4.828 2.218-8.496 1.304-4.394-1.101-6.652-.476-6.652 1.856 0 2.523 5.84 3.566 20.484 3.62l20.485.106-6.801-5.351c-5.086-4.016-5.899-5.914-3.215-7.567 4.289-2.652 8.754-.465 6.508 3.176-.887 1.422-.274 2.594 1.347 2.594q.587-.002 1.125-.227c.36-.148.676-.363.954-.636a2.96 2.96 0 0 0 .863-2.079c0-1.62 1.117-2.261 2.465-1.437 1.363.844 3.117-.953 3.914-4 1.84-7.004-1.867-9.324-11.407-7.117m-126.226-4.063c-1.39 4.153-5.133.41-5.133-5.113 0-3.149.828-3.45 3.102-1.176a6.95 6.95 0 0 1 1.8 2.89 6.9 6.9 0 0 1 .23 3.4m15.742-9.203c-2.289 0-4.172-1.043-4.172-2.32 0-1.278 1.883-2.32 4.172-2.32 2.293 0 4.176 1.042 4.176 2.32s-1.883 2.32-4.176 2.32m13.223 7.711c-4.637-5.027-4.453-8.273.261-4.363 2.047 1.695 4.551 2.277 5.567 1.261.996-.996 1.824-.433 1.824 1.262 0 4.973-3.898 5.903-7.652 1.84m19.383-21.133c4.941-3.133 7.753-2.898 7.753.637 0 1.637-1.753 4.738-3.898 6.887-3.348 3.351-4.16 3.246-5.668-.68a5.9 5.9 0 0 1-.418-1.844 5.8 5.8 0 0 1 .184-1.883 5.8 5.8 0 0 1 .77-1.722q.523-.803 1.277-1.395m-7.715 25.485c-.68 0-1.23-1.246-1.23-2.786q.015-.567.25-1.09.233-.516.644-.91.417-.39.945-.593.534-.206 1.102-.188c1.625 0 2.175 1.246 1.234 2.781-.945 1.54-2.277 2.786-2.945 2.786m2.96 8.379c-.972-1.583.145-2.043 2.622-1.086 2.379.91 4.32 2.144 4.32 2.753 0 2.247-5.309.985-6.941-1.668m13.407-9.208c-5.461 3.625-6.336 3.48-9.043-1.578-1.656-3.086-2.059-6.164-.914-6.855 3.492-2.078 14.656-.656 15.351 1.969.38 1.336-2.058 4.25-5.394 6.464m56.101 21.34c-2.476.957-4.113-.043-4.113-2.492 0-2.246-4.031-5.726-8.945-7.742-5.887-2.39-7.785-4.363-5.567-5.738 1.985-1.22 3.391-.582 3.422 1.566.032 2.633.782 2.488 2.739-.539q2.696-4.177 2.738-.695.083.75.433 1.418c.235.441.543.828.93 1.152a3.8 3.8 0 0 0 1.29.719c.476.16.968.222 1.468.187 2.242 0 5.348 2.38 6.914 5.293 2.145 4 1.824 5.668-1.309 6.871M1413.063 770.29c2.898 3.679 3.753 3.91 3.218.882-.465-2.578 2.68-5.164 8.309-6.844 11.305-3.363 11.492-6.117.578-8.523-6.727-1.48-8.105-2.946-6.77-7.176.985-3.086.375-5.32-1.437-5.32-1.723 0-2.363 1.246-1.418 2.78.941 1.54.348 2.786-1.32 2.786-5.828 0-6.684-9.059-1.22-13.133 4.856-3.629 4.364-3.887-5.812-2.93-10.25.958-11.058 1.637-10.234 8.555.684 5.727-.32 7.524-4.176 7.551-3.972.031-4.23.566-1.234 2.48 3.219 2.04 3.133 3.829-.578 11.278-2.754 5.508-3.219 8.449-1.23 7.785 1.753-.582 4.94-6.309 7.073-12.711 3.504-10.512 8.989-15.918 8.989-8.875 0 1.535 1.84 2.781 4.09 2.781 2.636 0 3.535 1.727 2.52 4.875-.97 2.985-.665 3.668.78 1.766 1.422-1.871 4.555-2.219 7.918-.883 5.985 2.375 5.957 2.418-3.566 4.191-3.93.723-6.961-.41-7.957-2.988-.875-2.304-2.684-4.176-4.008-4.176-1.316 0-1.664 1.903-.781 4.204 1.16 3.015.348 3.726-2.867 2.496-4.914-1.899-6.235 3.011-1.582 5.902 1.593.98 2.129 4.172 1.203 7.102-1.274 4.015-.621 4.914 2.652 3.652 2.395-.93 3.656-2.8 2.813-4.16-3.29-5.324 2.144-8.32 6.046-3.348M87.633 776.488c2.93.121 4.578-.531 3.652-1.46-.93-.926-3.324-1.028-5.34-.22-2.215.887-1.558 1.551 1.688 1.68M372.059 775.957c.925-.93 1.027-3.324.218-5.34-.886-2.215-1.55-1.558-1.68 1.688-.12 2.925.532 4.578 1.462 3.652m0 0"/><path fill="#d00000" d="M565.914 774.867a10.8 10.8 0 0 0-3.48-.574q-1.788 0-3.48.574c-1.915.77-.349 1.406 3.476 1.406 3.828 0 5.394-.636 3.484-1.406M1348.535 744.934c2.945-2.395 4.555-5.164 3.55-6.164-.995-1-3.519-.407-5.589 1.32-2.828 2.336-5.094 2.176-9.004-.7-2.875-2.097-6.86-3.187-8.844-2.417-2 .77-5.48-.145-7.742-2.016a9.7 9.7 0 0 0-4.12-1.871 9.6 9.6 0 0 0-2.27-.164 9.5 9.5 0 0 0-2.25.371c-3.016 1.156-7.625-1.508-13.688-7.945-6.941-7.352-9.535-8.711-10.723-5.614-.859 2.25-.351 4.09 1.125 4.09 1.485 0 2.786 2.828 2.891 6.266.188 5.957.316 5.984 2.492.691 2.176-5.304 2.375-5.32 4.375-.418 3.465 8.496-4.48 10.883-12.496 3.766-3.808-3.36-5.363-4.086-3.449-1.578 2.828 3.715 2.684 4.84-.781 6.176-2.54.968-4.25.086-4.25-2.204 0-2.449-2-3.308-5.567-2.378-3.117.828-5.566.09-5.566-1.637 0-1.711 1.797-3.117 4.016-3.117a7.7 7.7 0 0 0 3.386-.938 7.7 7.7 0 0 0 2.63-2.324c1.362-2.188.495-2.668-2.622-1.477-2.535.985-4.625.563-4.625-.914a2.73 2.73 0 0 1 .836-1.922q.389-.382.895-.582c.34-.132.687-.199 1.05-.195q.557 0 1.067-.21a2.796 2.796 0 0 0 1.719-2.57c0-1.525-2.086-2.786-4.641-2.786-2.547 0-3.84.8-2.883 1.757.969.97.29 4.418-1.52 7.653-1.8 3.246-2.945 7.047-2.539 8.437.403 1.38-.882 3.684-2.882 5.106-2.38 1.68-.524 2.039 5.421 1.011 5.43-.93 9.043-.39 9.043 1.364 0 1.594 2.813 2.535 6.266 2.09 3.445-.45 6.465.257 6.723 1.578a8.8 8.8 0 0 0 3.828 4.48c5.047 3.114.52 8.274-7.235 8.274-4.19 0-6.8 1.613-6.8 4.175 0 2.305 1.32 4.176 2.945 4.176 1.621 0 2.016-1.566.852-3.476-1.215-2.032.105-1.739 3.164.695 3.593 2.855 4.554 3.016 3.027.492-1.824-3.031-1.203-3.058 3.453-.144 3.129 1.957 5.133 4.433 4.465 5.539-.68 1.086.969 1.55 3.652 1.043 2.68-.524 6.059-1.032 7.508-1.145 1.438-.121.192-2.105-2.781-4.394-5.324-4.118-5.324-4.16.16-2.29a17.35 17.35 0 0 1 7.61 4.868c1.347 1.976 2.058 1.758 2.085-.649.032-2.004 1.293-2.87 2.828-1.93 1.536.942 2.786.258 2.786-1.523 0-1.785-1.856-2.535-4.133-1.664-3.39 1.3-3.551.664-.899-3.582 2.668-4.289 3.856-4.555 6.903-1.496a8.2 8.2 0 0 1 1.277 1.644 7.9 7.9 0 0 1 .813 1.922q.28 1.013.293 2.067.006 1.05-.254 2.07c-.84 2.215.636 6.203 3.304 8.867 4.246 4.25 5.22 4.336 7.887.684a17.4 17.4 0 0 1 3.86-3.41 17.4 17.4 0 0 1 4.68-2.14c4.855-1.235 4.753-1.438-.856-1.727-3.493-.176-7.09 1.593-7.973 3.93-1.305 3.362-2.465 3.55-5.672.898-3.492-2.903-3.445-3.657.336-5.77 5.45-3.058 5.668-7.73.332-7.73a7.6 7.6 0 0 1-3.363-.918 7.7 7.7 0 0 1-2.621-2.297c-1.278-2.047-.77-2.45 1.406-1.102 2.086 1.29 3.203.637 2.883-1.668-1.028-7.496.203-11.004 3.218-9.133 2.16 1.317 1.946 2.625-.695 4.29-2.926 1.87-2.695 2.406 1.102 2.433a4.7 4.7 0 0 1 .906.055q.447.07.875.222.429.159.816.387.393.234.727.54a4.7 4.7 0 0 1 1.086 1.437c.133.273.234.554.312.847a4.6 4.6 0 0 1 .149.895c0 2.39 1.133 3.637 2.523 2.781 1.39-.851 1.895-4.379 1.13-7.812-1.075-4.828-.333-4.38 3.206 2.011 6.13 11.063 6.563 11.293 6.07 3.309-.214-3.781-1.652-6.277-3.187-5.54-1.535.727-.379-.636 2.578-3.026m-47.113 9.507c-2.29 0-4.176-1.218-4.176-2.699 0-1.476 1.887-1.969 4.176-1.086 2.289.871 4.176 2.09 4.176 2.7 0 .593-1.887 1.085-4.176 1.085m4.176-5.566a2.723 2.723 0 0 1-1.934-.734 2.7 2.7 0 0 1-.613-.86 2.7 2.7 0 0 1-.238-1.031q.168-1.342.898-2.484a5.9 5.9 0 0 1 1.887-1.852c1.535-.941 2.78.234 2.78 2.625 0 2.379-1.245 4.336-2.78 4.336M1366.496 771.14c-1.52 0-2 1.25-1.055 2.786a6 6 0 0 0 1.934 1.91 6.05 6.05 0 0 0 2.574.875c1.524 0 2-1.25 1.059-2.785a6 6 0 0 0-1.938-1.91 6 6 0 0 0-2.574-.875M1467.035 773.926c5.246 3.39 5.567 3.39 5.567 0 0-1.535-2.192-2.77-4.872-2.739-4.164.028-4.261.434-.695 2.739M1380.75 767.605c3.059-3.902 5.55-9.394 5.523-12.207-.03-4.203-.507-4.394-2.597-1.086-1.406 2.22-1.942 5.043-1.172 6.274.754 1.234-.582 3.004-2.973 3.918a7.021 7.021 0 0 0-3.93 4.035 6.9 6.9 0 0 0-.417 1.879c0 2.883 1.808 1.957 5.566-2.813M613.926 765.574c-2.293 0-4.176 1.25-4.176 2.785s1.883 2.782 4.176 2.782c2.289 0 4.172-1.246 4.172-2.782 0-1.535-1.883-2.785-4.172-2.785M1519.918 752.672a7.3 7.3 0 0 1-1.191 3.758 7.4 7.4 0 0 1-1.313 1.492c-.508.441-1.062.8-1.672 1.086a6.7 6.7 0 0 0-1.61.945q-.742.586-1.292 1.348a7 7 0 0 0-.88 1.648 6.8 6.8 0 0 0-.394 1.828c0 2.637-1.593 3.567-4.316 2.524-2.48-.957-3.598-.492-2.625 1.086 2.727 4.39 9.727 3.191 9.727-1.68 0-2.437 2.378-5.062 5.277-5.816 2.914-.766 5.027-3.118 4.723-5.23-.868-5.919-4.434-8.321-4.434-2.99M1269.633 760.89c-3.711.278-7.254 2.395-7.871 4.684-.742 2.754-.336 3.106 1.172 1.016q3.273-3.456 7.87-4.68c4.395-1.203 4.145-1.422-1.171-1.02M1490.691 765.574c.946 1.54 2.278 2.785 2.946 2.785.683 0 1.23-1.246 1.23-2.785a2.9 2.9 0 0 0-.246-1.09 2.87 2.87 0 0 0-2.695-1.691c-1.621 0-2.176 1.246-1.235 2.781M1228.664 758.852c-3.828-1.465-4.004-1.063-1.062 2.488 4.015 4.828 5.628 5.324 5.628 1.758 0-1.38-2.062-3.278-4.566-4.246M172.598 762.793q.568.013 1.101-.191.529-.2.946-.594a2.8 2.8 0 0 0 .644-.91q.233-.522.25-1.09c0-1.535-.547-2.785-1.23-2.785-.668 0-2 1.25-2.946 2.785-.941 1.535-.386 2.785 1.235 2.785M993.902 714.781q.047.62-.136 1.219-.188.599-.582 1.086a3.264 3.264 0 0 1-2.11 1.172c-1.535 0-2.64-.942-2.449-2.086.828-5.277-.64-6.7-4.047-3.871-2.781 2.32-5.117 1.754-9.437-2.278-3.16-2.945-6.508-4.593-7.438-3.668-.926.93-1.68-.39-1.68-2.94 0-2.552-1.464-4.642-3.246-4.642-1.78 0-2.449-.796-1.476-1.77.969-.968 4.941.306 8.812 2.845 6.336 4.16 7.043 4.172 7.043.218 0-2.625 1.309-3.597 3.219-2.425 1.945 1.207 2.45.77 1.305-1.102a4.76 4.76 0 0 0-2.47-1.797 4.75 4.75 0 0 0-3.054.09c-1.988.77-6.824.156-10.773-1.336-5.77-2.203-8.098-1.695-11.985 2.594-2.652 2.93-5.93 4.64-7.293 3.8-1.378-.843-2.144.102-1.726 2.087.422 1.984-2.074 4.058-5.535 4.582-3.469.52-5.684 1.972-4.914 3.203 1.71 2.754-12.645 17.554-14.875 15.34-.871-.872.258-2.727 2.52-4.133 3.405-2.117 3.495-3.508.491-8.352-2.941-4.738-2.941-5.683 0-5.219 6.77 1.102 14.73-4.449 15.399-10.71.36-3.45-.653-6.266-2.262-6.266-1.594 0-2.219 1.133-1.363 2.512.855 1.375-3.453 5.117-9.582 8.304-10.77 5.614-11.117 5.625-11.117.48 0-5.945-15.602-15.323-18.282-11.003-.886 1.45-.582 2.289.68 1.867 2.39-.812 3.684 1.395 3.684 6.309q-.03.3-.118.59a2.8 2.8 0 0 1-.597 1.042q-.206.223-.457.399-.246.176-.528.293a3 3 0 0 1-.578.172c-.199.035-.402.047-.601.039a2.8 2.8 0 0 1-.598-.086 32.7 32.7 0 0 0-6.367-.117c-3.61.406-4.684 11.468-1.117 11.468a2.84 2.84 0 0 1 1.933 1 2.86 2.86 0 0 1 .676 2.07c0 1.7-1.738 2.423-3.855 1.614-2.114-.812-6.41.305-9.512 2.477-3.113 2.191-7.637 3.203-10.059 2.277-5.422-2.074-5.715 3.93-.508 10.77 3.16 4.175 4.208 4.32 6.989.972 2.52-3.043 2.433-4.277-.332-5.379-2.293-.926-1.828-1.52 1.277-1.664 2.98-.137 4.867 1.797 4.867 4.996 0 6.137-6.465 12.352-9.742 9.367-1.262-1.132-1.594-.129-.754 2.23 1.16 3.25-.273 4.192-5.816 3.845-15.696-.985-15.989-1.075-11.926-3.653 2.64-1.668 2.855-2.972.691-4.304-1.68-1.043-3.07-.496-3.07 1.23 0 1.727-2.191 2.55-4.871 1.828-2.684-.742-8.32-2.086-12.523-3.031-4.204-.941-7.657-2.926-7.657-4.438 0-1.492.942-2.578 2.09-2.39 8.016 1.262 14.16-1.086 15.422-5.903.797-3.054.246-5.566-1.23-5.566-1.48 0-1.801-1.45-.711-3.215 1.23-1.988.765-2.449-1.22-1.234-2.085 1.289-3.218-.317-3.218-4.582 0-3.61-1.566-8.145-3.476-10.102-1.914-1.945-2.235-3.293-.7-3.004 7.278 1.38 12.528-.547 12.528-4.609 0-2.898-1.524-3.883-4.32-2.813-2.481.957-3.598.48-2.626-1.085.946-1.524.375-2.754-1.246-2.754a3.46 3.46 0 0 0-2.906 2.222q-.23.609-.227 1.258c-.101 1.91-1.55.649-3.218-2.812q-.48-1.014-.809-2.086-1.396 1.254-3.207 1.734c.07 2.18-1.738 3.168-6.492 4.832-6.582 2.29-7.742 2.07-6.48-1.203 1.058-2.785.19-3.496-2.872-2.32-2.406.925-4.277 2.504-4.144 3.507q.156 3.698-.16 7.391c-.36 5.234-.696 5.164-5.493-1.07-3.597-4.668-5.714-5.653-7.18-3.293-1.171 1.902.016 4.86 2.786 6.886 4.582 3.348 4.566 3.637-.203 5.465-2.973 1.145-5.973.48-7.352-1.636-1.824-2.828-2.867-2.715-5.043.609-2.437 3.71-2.754 3.71-2.828 0-.074-3.652-.402-3.668-2.668-.086-1.433 2.258-3.566 3.129-4.754 1.941-2.539-2.539 4.727-7.699 7.989-5.683 1.214.754 2.218-.524 2.218-2.828 0-3.727-1.133-3.727-10.191.058-7.8 3.262-11.567 3.54-16.008 1.203a50.8 50.8 0 0 0-12.086-4.25c-5.222-.98-5.847-.37-3.695 3.641 2 3.727 1.445 4.817-2.453 4.817-3.262 0-4.496-1.438-3.492-4.047 1.085-2.828.433-3.348-2.176-1.727-2.727 1.684-3.246 1.059-1.957-2.332 2.465-6.394-.551-5.785-6.758 1.36-6.32 7.277-6.39 7.933-.867 7.933 2.578 0 3.535-1.309 2.363-3.219-1.32-2.117-.754-2.449 1.637-.957 2.843 1.754 2.523 3.059-1.492 5.985-8 5.859-10.192 4.496-8.48-5.286.855-4.976.882-7.558.026-5.73-.84 1.828-3.636 2.535-6.218 1.566-4.016-1.492-4.157-1.101-1.059 2.727 3.145 3.871 2.887 4.273-1.988 2.996-4.594-1.2-5.406-.344-4.45 4.64 1.02 5.278.583 5.626-3.156 2.508-6.25-5.171-12.234-5.437-14.093-.609-1.305 3.41-2.043 3.496-3.957.48-1.797-2.843-2.36-2.562-2.391 1.165a4.45 4.45 0 0 0 .203 1.746c.09.281.211.554.352.812q.216.387.504.727c.19.226.406.43.636.613.23.188.48.348.742.48a4.5 4.5 0 0 0 1.692.489c2.289 0 4.176-1.348 4.176-2.988 0-1.637 1.886-1.102 4.175 1.19 5.278 5.29 5.493 9.134.274 4.798-2.996-2.477-4.192-2.406-5.117.363-.68 1.973 2.015 5.16 5.988 7.078l7.207 3.461-9.09-.914c-7.71-.766-8.828-.144-7.469 4.192 1.02 3.187.246 5.085-2.074 5.085-2.027 0-5.289 2.555-7.23 5.684-3.684 5.887-2.422 11.016 2.71 11.016 1.872 0 1.68-1.535-.507-4.172-2.192-2.64-2.38-4.176-.508-4.176.992.11 1.914.434 2.758.965a6.5 6.5 0 0 1 2.07 2.062c1.23 1.989 2.813 2.09 4.625.266 3.406-3.41 13.727 4.637 11.582 9.027v-.015c-.8 1.656.524.554 2.926-2.418 2.41-2.973 4.379-6.48 4.379-7.813 0-1.336 1.203-1.668 2.672-.77 1.46.9 2 3.364 1.199 5.45a5 5 0 0 0-.297 1.637 5 5 0 0 0 1.027 3.12q.51.676 1.211 1.145c2.176 1.348 2.684.957 1.407-1.105-1.086-1.766-.97-3.36.28-3.52 14.696-2.031 20.38-2.015 19.09.074-.84 1.375 1.579 1.043 5.391-.726 3.828-1.766 6.957-4.23 6.957-5.465.016-1.246-1.086-1.566-2.46-.71-1.364.843-3.188-.29-4.063-2.536-1.895-4.957 2.48-8.137 7.254-5.262 2.605 1.567 2.578.969-.133-2.379-2.48-3.043-2.684-5.043-.652-6.293a3.28 3.28 0 0 0 1.586-1.933 3.3 3.3 0 0 0-.223-2.489c-.887-1.417-.379-2.593 1.117-2.593a5.2 5.2 0 0 1 2.527 1.183 5.2 5.2 0 0 1 1.586 2.297c1.075 2.625 2.149 2.45 4.368-.699 1.62-2.29 2.984-2.781 2.996-1.086.03 1.887 4.425 2.781 11.18 2.305 10.44-.754 12.671.828 11.378 8.09-.23 1.293 1.192 1.812 3.149 1.16q.75-.29 1.394-.778a5.54 5.54 0 0 0 1.86-2.558q.27-.757.312-1.567a5.5 5.5 0 0 1 .43-1.636 5.55 5.55 0 0 1 2.187-2.54 5.5 5.5 0 0 1 1.555-.663c2.555-.711 3.059-.247 1.309 1.16-4.657 3.695-3.133 10.48 2.578 11.582 3.582.699 4.8-.219 3.797-2.828-1.622-4.246 10.136-5.043 13.875-.926 1.16 1.273.625 1.465-1.192.433a3.6 3.6 0 0 0-1.3-.523 3.7 3.7 0 0 0-1.4-.004 3.733 3.733 0 0 0-2.328 1.469c-.972 1.566.798 2.828 3.927 2.828 3.726 0 6.28 2.379 7.421 6.945.957 3.813 2.743 6.32 3.961 5.567 1.23-.77 1.582-3.887.786-6.946-1.196-4.523-.09-5.566 5.824-5.566 4 0 7.277.523 7.277 1.16a32 32 0 0 0 1.871 6.031c1.262 3.29.813 4.215-1.363 2.871-2.16-1.332-2.637-.464-1.45 2.622 1.653 4.32 1.946 4.32 4.364 0 1.652-2.942 3.77-3.739 5.844-2.188 5.336 4 15.222 3.363 16.933-1.101.883-2.293 2.996-3.305 4.696-2.247 2.172 1.332 1.968 2.625-.68 4.305-2.93 1.856-2.7 2.406 1.102 2.434 2.68.03 4.867-1.274 4.867-2.867 0-1.829 4.176-2.305 11.133-1.262 6.785 1.011 11.136.547 11.136-1.172 0-1.555-1.758-2.16-3.902-1.336q-.719.314-1.504.383a4.787 4.787 0 0 1-2.984-.719 4.8 4.8 0 0 1-1.164-1.027c-.973-1.567-3.754-2.086-6.188-1.149-3.582 1.383-3.453.57.707-4.304 5.02-5.856 8.266-8.059 5.742-3.895-1.926 3.188 4.434 7.766 10.684 7.711 3.058-.031 6.25.852 7.074 1.957.844 1.117 6.32.691 12.18-.914 7.55-2.09 11.508-2.074 13.636.059 4.336 4.332 7.47 3.71 7.47-1.512 0-3.156 1.042-3.727 3.48-1.883a21.8 21.8 0 0 0 10.191 2.988c3.68.203 7.742 1.985 9 3.969 2.133 3.367 3.567 1.074 2.637-4.23-.215-1.262.972-1.45 2.64-.418q.646.488 1.098 1.164a4.877 4.877 0 0 1 .816 3.047 4.9 4.9 0 0 1-.363 1.554c-.824 2.145-.418 3.899.887 3.899 1.3 0 3.09-2.782 3.984-6.188l1.625-6.207 12.176 13.078 7.594-8.683c7.902-9.063 10.512-25.672 5.324-33.88-1.754-2.769-2.566-2.956-2.594-.562m-299.488 25.524c-3.25-.13-3.902-.793-1.687-1.68 2.015-.809 4.41-.71 5.336.219.93.926-.723 1.582-3.649 1.46m25.379-21.075c4.785-6.32 5.176-3.64.844 5.856-1.774 3.902-4.496 7.09-6.032 7.09s-1.972-.828-.972-1.828c1.015-1.016.273-3.754-1.621-6.106-2.785-3.445-2.742-3.84.215-2.07 2.277 1.379 5.132.277 7.566-2.942m-12.625-6.699c0-1.62 1.246-2.176 2.781-1.234 1.54.945 2.785 2.277 2.785 2.945 0 .684-1.246 1.23-2.785 1.23a2.8 2.8 0 0 1-1.086-.25 2.8 2.8 0 0 1-.91-.648 2.8 2.8 0 0 1-.594-.945 2.8 2.8 0 0 1-.191-1.098m26.094 27.992c-3.7 0-3.887.754-1.043 4.176 2.797 3.364 2.722 4.16-.348 4.09a22.35 22.35 0 0 1-8.726-2.93c-2.684-1.562-5.993-2.172-7.336-1.336-1.348.829-3.989-.363-5.887-2.636-1.887-2.274-2.352-4.29-1.012-4.465a44.3 44.3 0 0 0 9.39-2.246c4.657-2.133 10.915-2.117 9.598.027-2.304 3.711 2.637 3.102 6.555-.793 2.594-2.613 3.332-2.297 3.332 1.39.004.302-.02.606-.07.903q-.082.447-.246.871c-.114.285-.25.551-.41.809a4.7 4.7 0 0 1-1.25 1.3 4.4 4.4 0 0 1-.79.446 4.4 4.4 0 0 1-.859.285 4.6 4.6 0 0 1-.898.11m-1.38-16.699a6 6 0 0 1 2.575.875 6 6 0 0 1 1.938 1.906c.94 1.54.46 2.786-1.06 2.786a6 6 0 0 1-2.573-.875 5.94 5.94 0 0 1-1.934-1.91c-.945-1.536-.465-2.782 1.055-2.782m9.7-4.972c-2.55-4.047-3.652-4.192-7.566-.93-2.711 2.25-4.582 2.594-4.582.844 0-3.817 2.8-5.465 12.02-7.133 4.667-.856 7.448-.113 7.421 1.941-.086 7.176-4.215 10.164-7.293 5.278m33.938-.594c-.668 0-2-1.246-2.942-2.785-.945-1.535-.39-2.782 1.23-2.782q.57-.017 1.102.188a2.874 2.874 0 0 1 1.844 2.594c0 1.539-.55 2.785-1.234 2.785m46.464 12.074c-2.336 1.465-3.48.363-3.48-3.336 0-3.012 1.566-6.129 3.48-6.898 2.344-.942 2.086-1.477-.773-1.621-2.344-.118-6.723 1.406-9.742 3.406-5.809 3.828-13.172 3.957-21.946.375-3.753-1.52-4.738-1.203-3.32 1.086 1.106 1.797.813 3.261-.637 3.261-4.25 0-6.117-7.957-2.433-10.347 4.07-2.64 13.957-2.867 15.887-.363.77.984 3.898 2.246 6.957 2.78 4.015.7 5.34-.374 4.753-3.87-.91-5.446 4.004-16.032 7.438-16.032 4.746 0 13.398 9.961 12.687 14.618-.39 2.675.418 4.867 1.81 4.867q.557.058 1.05.328a2.836 2.836 0 0 1 1.367 1.668q.169.533.121 1.09c0 1.683-1.887 2.351-4.176 1.476-6.699-2.578-4.812.918 2.09 3.848 6.188 2.637 6.176 2.664-.695 2.086-3.828-.32-8.527.39-10.438 1.578m19.95 18.324c-3.25-.129-3.903-.797-1.688-1.683 2.016-.809 4.41-.707 5.336.222.93.926-.723 1.578-3.648 1.461m9.91 5.032c-3.102.23-4.899-.754-4.016-2.204 1.961-3.16 9.645-3.492 9.645-.422 0 1.204-2.54 2.375-5.63 2.625M890.582 720a10 10 0 0 0 1.098-2.094 10.06 10.06 0 0 0 .105-6.957c-1.683-4.508-1.347-4.722 2.492-1.605 4.496 3.652 9.598.258 6.684-4.438-2.012-3.261 3.144-10.527 5.684-7.988 1.187 1.187.523 3.172-1.477 4.41-2.844 1.75-2.625 2.625.953 4 2.524.969 3.8 3.043 2.828 4.61a3 3 0 0 1-.699.933 3.04 3.04 0 0 1-3.285.543c-1.219-.754-4.453 1.102-7.195 4.133-2.739 3.015-3.567 5.492-1.856 5.492 1.785 0 2.379 2.09 1.395 4.875-.957 2.68 1.058 1.418 4.464-2.785 7.524-9.293 11.442-9.77 11.145-1.39-.113 3.448-.852 4.695-1.621 2.784a5.2 5.2 0 0 0-.672-1.273 5.1 5.1 0 0 0-.984-1.05 5.402 5.402 0 0 0-2.605-1.16c-1.563 0-2.118 1.886-1.247 4.175.887 2.293.492 4.176-.855 4.176a22.9 22.9 0 0 0-6.438 1.523c-5.883 2.262-11.945-6.062-7.914-10.914m20.473 17.422c2.675.176 4.867 1.437 4.867 2.797 0 3.523-5.379 4.683-17.106 3.668-7.277-.637-10.554-2.418-11.57-6.29-.781-2.988-.289-5.421 1.102-5.421q.528.023 1.004.254c.32.148.593.355.832.617q.355.388.535.887.176.497.152 1.023c0 4.277 11.02 3.309 15.7-1.39 4.699-4.7 9.35-5.493 9.35-1.598 0 1.422-2.19 3.148-4.866 3.86-4.64 1.202-4.64 1.288 0 1.593m21.566-19.078c0-1.477 1.887-1.973 4.176-1.09 2.289.875 4.176.137 4.176-1.649 0-1.78 1.39-2.39 3.074-1.335 2.16 1.32 1.945 2.625-.695 4.293-5.079 3.214-10.73 3.101-10.73-.22m15.211 19.57c-1.977 3.191-6.047 3.395-7.887.406-.754-1.218 1.07-2.39 4.055-2.61 3.004-.23 4.715.755 3.832 2.204m10.914 1.133c-2.336 2.348-4.785 4.262-5.453 4.262-2.914 0-.809-10.77 2.668-13.645 5.668-4.707 8.25 3.93 2.785 9.383m6.234-26.356c-2.496 0-4.523.957-4.523 2.114 0 1.164-2.289 3.554-5.102 5.293-4.117 2.578-5.105 2.363-5.105-1.102 0-2.348 2.363-4.898 5.262-5.668 3.031-.781 4.64-2.988 3.797-5.176-1.954-5.09 2.379-4.855 6.714.364 2.844 3.422 2.653 4.175-1.043 4.175m30.383 14.364c-.113 9.234.074 9.09-5.293 3.726-3.433-3.437-4.808-3.535-7.84-.539-5.566 5.5-14.164 8.238-12.609 4.024a4.14 4.14 0 0 1 1.809-2.196 4.2 4.2 0 0 1 2.797-.52c1.843.419 2.582-.464 1.652-1.972-.926-1.492-3.52-2.027-5.766-1.16-2.25.86-4.09.176-4.09-1.508 0-1.695.942-3.187 2.09-3.316 1.14-.133 4.594-.684 7.653-1.219 20.136-3.566 19.718-3.668 19.597 4.68m0 0"/><path fill="#d00000" d="M821.59 704.906c-2.348-.785-3.102-.058-1.914 1.856 1.062 1.722.61 3.144-1.012 3.144q-.59.005-1.133.239-.543.227-.957.648a2.9 2.9 0 0 0-.636.965 3 3 0 0 0-.22 1.137c0 1.636 2.192 2.566 4.876 2.039 5.797-1.11 6.504-8.188.996-10.028M749.773 744.309c-2.304 2.304-2.914 15.586-.652 14.191 1.203-.75 3.031-.012 4.059 1.652 3.511 5.684 4.117.754 1-8.191-1.727-4.914-3.696-8.363-4.407-7.652M1216.527 756.414c-3.476-.898-5.566-.086-5.566 2.203 0 2.29 2.09 3.102 5.566 2.203 3.059-.812 5.57-1.8 5.57-2.203 0-.406-2.511-1.394-5.57-2.203M1280.547 751.11c0 1.824 1.043 3.331 2.32 3.331 1.278 0 2.32-1.984 2.32-4.406 0-3.117-1.902-4.043-6.496-3.176-3.566.684-6.496.016-6.496-1.476 0-1.496-2.465-2.074-5.465-1.293-8.117 2.117-11.94-4.031-8.511-13.672l2.86-7.984-7.032 8.347c-3.871 4.594-8.422 7.989-10.106 7.54-1.867-.493-2.46 1.511-1.535 5.085 1.219 4.64.551 5.555-3.117 4.297-3.566-1.246-3.406-.64.738 2.563 5.043 3.902 5.075 4.175.352 4.175-4.176 0-4.453.723-1.582 4.176 3.898 4.7 6.812 5.668 4.176 1.39-.946-1.534.187-2.784 2.535-2.784 2.824 0 3.652-1.551 2.465-4.653-1.348-3.508-.653-4.234 2.785-2.914 2.504.973 5.3.567 6.203-.898.969-1.578 4.77-1.031 9.41 1.379 5.856 3.027 8.566 3.234 10.973.828 2.418-2.41 3.203-2.38 3.203.144m-29.067-5.02c-2.378 0-4.335-1.246-4.335-2.781a2.8 2.8 0 0 1 .175-1.043 2.8 2.8 0 0 1 .563-.895c.246-.258.531-.465.86-.61a2.7 2.7 0 0 1 1.027-.238c.898.114 1.726.41 2.484.899a5.85 5.85 0 0 1 1.851 1.887c.942 1.535-.23 2.78-2.625 2.78M1478.168 760.008c0-1.535-1.957-2.785-4.336-2.785-2.39 0-3.566 1.25-2.621 2.785a5.923 5.923 0 0 0 4.332 2.785q.54-.017 1.027-.238a2.7 2.7 0 0 0 1.598-2.547M264.477 754.21c-1.711-3.206-3.809-5.1-4.668-4.25-.852.856.03 3.47 1.957 5.798 5.004 6.031 6.363 5.254 2.71-1.547M769.59 747.18c-2.406.91-7.102.218-10.434-1.551-5.484-2.914-5.699-2.785-2.234 1.406 2.086 2.54 2.883 4.621 1.738 4.621-1.148 0-.508 1.887 1.39 4.176 1.903 2.293 3.903 4.176 4.423 4.176.539 0 .25-1.883-.637-4.176-1.102-2.898.203-4.176 4.262-4.176 3.234 0 5.87-1.39 5.87-3.086 0-1.68-1.968-2.32-4.378-1.39M1117.645 741.02c-4.594 1.578-4.727-8.77-.13-10.528a6.7 6.7 0 0 0 2.954-2.129 6.825 6.825 0 0 0 1.426-3.352c0-2.23-1.727-3.128-4.22-2.175a8.4 8.4 0 0 1-3.976.305 8.4 8.4 0 0 1-3.68-1.536c-1.882-1.566-8.132-2.625-13.87-2.343-5.743.273-10.438-.336-10.438-1.34 0-2.621 8.406-5.504 11.117-3.84 1.262.785 1.567-1.305.7-4.625-1.25-4.797-.626-5.68 3.042-4.273 2.54.984 4.621.535 4.621-.989 0-1.52-3.214-3.984-7.144-5.48-9.192-3.492-9.555-3.45-9.555 1.16 0 3.855-7.984 8.555-10.426 6.117-2.214-2.215 2.352-7.363 5.051-5.695 1.418.883 2.594.273 2.594-1.348a2.927 2.927 0 0 0-.867-2.078 2.93 2.93 0 0 0-2.078-.867c-1.621 0-2.16-1.274-1.204-2.828a3.8 3.8 0 0 1 1.024-.961 3.72 3.72 0 0 1 2.703-.516c.469.09.902.266 1.305.52 1.812 1.047 2.32.828 1.129-.477-1.188-1.32-4.711-2.77-7.825-3.25-4.48-.676-5.496.453-4.8 5.414.652 4.707-.524 6.274-4.696 6.274-3.597 0-5.437-1.727-5.18-4.871.41-5.145-3.171-6.61-5.78-2.375-.86 1.375 1.453 5.375 5.101 8.898 3.652 3.523 6.031 8.031 5.266 10.031-1.86 4.813-6.368 4.64-6.368-.261 0-3.723-5.68-7.247-11.656-7.247-1.578 0-2.129 1.872-1.258 4.176.938 2.434.04 4.176-2.175 4.176-5.567 0-3.856-9.394 2.16-11.86 2.84-1.148 4.504-3.816 3.695-5.913a8 8 0 0 1-.266-1.95 8 8 0 0 1 .227-1.957q.234-.96.703-1.84a7.8 7.8 0 0 1 1.133-1.605c2.496-2.695 2.496-3.105 0-1.7-1.856 1.036-3.824-.3-4.55-3.07-.813-3.132-1.407-2.19-1.61 2.583-.29 6.957-5.887 14.527-5.887 7.988 0-1.63-1.914-2.946-4.25-2.946-3.809 0-3.809.84 0 8.208a60 60 0 0 1 4.25 9.363c0 1.812-13.219-.13-17.238-2.535-2.707-1.641-2.649-.973.234 2.578a8.4 8.4 0 0 0 1.797 1.785 8.44 8.44 0 0 0 4.73 1.64 8.5 8.5 0 0 0 2.516-.292c5.992-1.899 6.527.914 1.453 7.566-3.277 4.32-3.797 4.262-6.96-.797-3.071-4.93-3.84-5.043-7.696-1.187-2.348 2.359-5.523 4.289-7.031 4.289s-1.926 1.332-.914 2.972c1.015 1.621-.797 3.653-4.016 4.496q-1.177.27-2.207.891a7.56 7.56 0 0 0-3.633 5.879c0 2.883-.988 5.246-2.176 5.246-1.203 0-2.421 2.988-2.722 6.64-.38 4.493 1.172 7.102 4.754 8.048 3.695.957 4.855.218 3.808-2.48-.808-2.13-.183-3.856 1.395-3.856 1.594 0 3.418 2.187 4.09 4.867.898 3.64 2.058 2.656 4.578-3.957 3.785-9.914 7.453-12.16 15.308-9.364 4.278 1.524 4.598 2.407 1.567 4.293-2.38 1.446-4.246 1.102-4.93-.945-.61-1.808-2.187-2.605-3.52-1.785-1.335.816-1.64 3.543-.683 6.031 1.16 3.047.668 3.887-1.508 2.54-1.797-1.118-3.262-.829-3.262.64 0 4.113 7.829 6.113 9.352 2.387 1.059-2.578 1.898-2.578 3.723 0 2.699 3.773 10.816.148 8.394-3.75-.824-1.352 2.145-2.594 6.61-2.77 4.453-.187 8.105.914 8.105 2.45 0 1.523-2.508 2.128-5.566 1.32-3.059-.801-5.567-.465-5.567.75 0 3.554 9.961 5.117 14.918 2.336 2.953-1.653 4.567-1.524 4.567.363 0 4.71 7.03 3.379 14.93-2.844 6.277-4.941 7.335-5.117 7.335-1.23 0 2.507-1.246 3.77-2.781 2.828-1.54-.946-2.785-.465-2.785 1.07 0 1.54 4.683 2.367 10.441 1.844 5.735-.535 12.07-1.09 14.07-1.25 2.016-.145 3.079-1.215 2.38-2.36-.68-1.144.421-3.64 2.48-5.539 2.348-2.175 4.363-2.437 5.437-.695.942 1.508.524 2.754-.914 2.754-1.449 0-3.277 2.508-4.09 5.566v.016c-1.796 6.856 1.32 7.176 7.004.695 4.407-5.015 2.797-15.8-2.09-14.132m-104.145 2.289c-3.277 0-6.797-5.422-4.797-7.422s7.422 1.52 7.422 4.797a2.6 2.6 0 0 1-.77 1.855 2.6 2.6 0 0 1-1.855.77m65.64-26.442c.872-2.293 2.09-4.176 2.7-4.176.594 0 1.086 1.883 1.086 4.176 0 2.29-1.219 4.172-2.7 4.172-1.476 0-1.968-1.883-1.085-4.172m-3.605 33.543c-1.8 4.668-2.816 4.988-4.96 1.54-.84-1.364.277-3.192 2.48-4.032 2.683-1.027 3.507-.2 2.48 2.492m-7.57-6.289a3.4 3.4 0 0 1-.5-.933 3.4 3.4 0 0 1-.195-1.043q-.012-.534.14-1.051.148-.517.453-.957c1.946-3.164 9.496-3.09 9.496.082 0 3.074-7.218 6.078-9.394 3.902m25.355.305c-.914-.914-.941-3.524-.074-5.801 1.293-3.363 2.016-3.45 3.945-.418a15.3 15.3 0 0 1 2.391 5.8c.059 2.49-3.91 2.766-6.262.419m10.48 7.23a6 6 0 0 1-1.933 1.91 6 6 0 0 1-2.574.875c-1.523 0-2-1.246-1.059-2.785a6.05 6.05 0 0 1 1.934-1.906 6 6 0 0 1 2.574-.875c1.524 0 2 1.246 1.059 2.781m7.509-7.797c-2.579 2.582-4.086 2.598-6.641.028-4.898-4.883-5.156-11.711-.461-11.711 2.262 0 3.32-1.262 2.363-2.813-1.117-1.797-3.437-1.886-6.363-.246a9.92 9.92 0 0 1-7.105.903 10 10 0 0 1-2.274-.875c-5.855-3.13-10.453 2.52-4.86 5.972 2.06 1.278 2.887 3.188 1.817 4.262-1.074 1.07-3.543.621-5.484-.969a24.5 24.5 0 0 0-10.203-3.87c-5.266-.77-6.887.448-7.727 5.812-.582 3.738-1.332 6.957-1.684 7.16-2.015 1.176-15.945-7.785-15.945-10.266 0-1.969 1.317-1.871 3.93.29 2.535 2.105 4.535 2.28 5.637.48.941-1.524-.813-4.145-3.926-5.797-3.102-1.668-5.64-4.86-5.64-7.102 0-2.234-1.317-4.078-2.942-4.078s-2.078-1.406-1.016-3.144c1.332-2.133 2.754-1.684 4.504 1.449 1.422 2.539 3.758 3.87 5.207 2.972 1.45-.898 3.395.336 4.305 2.727.914 2.39 4.351 4.32 7.644 4.289 5.766-.055 5.735-.23-.957-5.379-3.816-2.926-6.004-6.234-4.875-7.363 1.117-1.117 2.047-.594 2.047 1.176s2.813 2.91 6.262 2.55c4.77-.507 6.043.579 5.363 4.579-.723 4.164.145 4.785 4.176 3.02 2.785-1.235 9.379-2 14.625-1.727 5.262.277 10.441-.926 11.527-2.684 3.364-5.45 7.508-.172 6.754 8.625-.39 4.61.64 8.394 2.29 8.394 1.96 0 1.843 1.164-.348 3.336m0 0"/><path fill="#d00000" d="M1205.379 739.117c-1.711-1.054-1.188-4.722 1.394-9.71 5.145-9.93 6.926-11.005 13.93-8.321 5.09 1.941 4.844 2.418-2.781 5.55-4.625 1.9-6.785 4-4.86 4.712q.321.086.614.25.292.158.543.386a2.8 2.8 0 0 1 .75 1.086q.119.312.168.64a2.9 2.9 0 0 1-.121 1.313q-.105.318-.282.602c-1.105 1.766-.539 2.16 1.407.957a3.89 3.89 0 0 0 1.285-5.289c-1.332-2.234-.563-2.16 2.379.215 5.476 4.453 10.148-.45 9.336-9.77-.305-3.453.812-6.308 2.464-6.351 1.653-.043.508-2.102-2.55-4.551-4.524-3.625-4.657-4.149-.696-2.785 2.68.93 4.871.465 4.871-1.012 0-1.48-2.511-2.7-5.566-2.7-3.059 0-5.566-1.679-5.566-3.737 0-2.059-2.278-5.797-5.047-8.32-4.016-3.63-5.77-3.86-8.54-1.122-2.78 2.73-4.218 2.453-7.046-1.36-3.13-4.245-4.16-4.335-8.856-.784-6.16 4.672-16.73 5.437-19.222 1.406a6.3 6.3 0 0 0-2.196-1.957 6.4 6.4 0 0 0-2.832-.781c-2.007.03-1.656 1.117.852 2.738 3.598 2.32 3.523 2.71-.54 2.738-3.3.031-4.359 1.817-3.562 5.992.625 3.258 2.016 6.711 3.075 7.653 1.058.941 1.129-.48.175-3.157-.972-2.683-.539-4.875.938-4.875q.58.048 1.094.313c.343.176.644.41.894.703q.381.438.563.988.186.55.148 1.13c0 2.144 1.29 2.046 4.172-.348 2.883-2.395 4.176-2.496 4.176-.352 0 5.566 4.86 3.324 6.8-3.129 1.81-6.058 1.942-6.09 4.114-.695 1.383 3.422 1.047 6.363-.852 7.613-1.812 1.184-1.941 2.145-.32 2.29 1.539.128.273 1.304-2.781 2.62-4.407 1.887-4.598 2.434-.961 2.594 3.18.133 4.164 1.887 3.18 5.656-1.247 4.801-1.915 4.973-5.497 1.395-2.246-2.235-8.238-4.078-13.324-4.078-5.652 0-9.871-1.621-10.844-4.176-.882-2.29-.086-4.219 1.786-4.258 1.87-.047.957-1.93-2.016-4.176-6.508-4.933-12.426-5.496-7.668-.758 4.031 4.032 4.406 15.165.594 17.516-1.727 1.055-2.059-1.726-.926-7.48 1.648-8.348 1.39-8.844-2.828-5.368-2.551 2.09-4.684 2.73-4.727 1.395-.058-1.348-2.566.535-5.582 4.16-4.765 5.711-6.105 6.074-10.09 2.781-2.523-2.097-5.293-3.406-6.175-2.91-.872.508-2.028-.437-2.579-2.086-.554-1.64.215-2.988 1.696-2.988 1.476 0 3.332-2.508 4.144-5.566.801-3.059.465-5.57-.754-5.57-1.203 0-2.84 2.511-3.652 5.57-.8 3.058-3.45 5.566-5.887 5.566-3.593 0-3.304 1.133 1.496 5.93 4.043 4.043 9.711 6.03 17.856 6.261 6.57.188 12.875 1.278 14.023 2.422 3.114 3.114 12.883 2.52 10.914-.668-.972-1.582.16-2.03 2.696-1.058 3.465 1.32 3.699 2.52 1.086 5.652q-.647.796-1.493 1.383a7.2 7.2 0 0 1-1.816.91 7.16 7.16 0 0 1-4.023.14c-2.668-1.027-3.524-.214-2.54 2.383.899 2.332-.609 4.477-3.683 5.29a5.3 5.3 0 0 1-2.063.32 5.5 5.5 0 0 1-1.035-.145 5.2 5.2 0 0 1-.992-.336 5.7 5.7 0 0 1-.91-.523 5.5 5.5 0 0 1-.793-.688 5.7 5.7 0 0 1-.645-.824 5.7 5.7 0 0 1-.476-.933c-1.492-3.887-2.059-3.934-4.262-.391-2.101 3.375-3.55 3.492-8.207.594-3.68-2.282-5.652-2.465-5.652-.524 0 1.625-1.156 2.25-2.594 1.364a3.1 3.1 0 0 0-1.184-.38 3.1 3.1 0 0 0-1.234.102 3.2 3.2 0 0 0-1.11.563 3.2 3.2 0 0 0-.808.945c-1.016 1.64 1.305 2.828 5.54 2.828 4 0 6.538 1.203 5.64 2.668-.988 1.594 2.32 2.16 8.191 1.406 5.492-.699 9.828-.043 9.828 1.508 0 1.52 1.809 2.766 4.016 2.766a7.8 7.8 0 0 1 3.383.937 7.7 7.7 0 0 1 2.633 2.328c1.359 2.204.523 2.653-2.625 1.391-2.536-1.027-6.727-2.715-9.278-3.742-3.597-1.45-4.234-.77-2.828 2.93 1.102 2.855.742 4.101-.898 3.101a7.3 7.3 0 0 1-2.028-2.543 7.2 7.2 0 0 1-.726-3.168c0-4.394-2.563-5.074-7.059-1.886-2.683 1.902-3.176 6.554-1.39 13.18.402 1.534 1.316.624 2.015-2.032 1.156-4.434 1.766-4.465 8.016-.375 3.726 2.45 6.77 3.16 6.77 1.578 0-3.16 5.058-2.984 10.41.348 2.359 1.48 2.925.8 1.78-2.16-.945-2.461-.175-4.32 1.77-4.32 2.68 0 2.68-.9-.047-4.173-2.78-3.347-2.707-5.105.352-8.89 2.61-3.203 2.707-4.024.348-2.61-2.004 1.192-3.48.7-3.48-1.187 0-1.899 2.331-2.668 5.566-1.809 3.058.797 6.378.114 7.378-1.508 1.07-1.726.508-2.132-1.378-.957-1.766 1.086-3.215.723-3.215-.796a6.1 6.1 0 0 1 .894-2.594 6.1 6.1 0 0 1 1.93-1.946c1.555-.957 2.277-2.656 1.582-3.757-.684-1.114 1.172-2.2 4.133-2.418 2.957-.23 5.375 1.246 5.375 3.277 0 5.664 11.09 7.61 11.308 1.969.118-2.942 1.172-2.113 2.93 2.277 2.172 5.465 3.262 6.074 5.203 2.93 1.352-2.188 1.899-4.903 1.203-6.004-1.465-2.375 4.133-6.406 6.117-4.422.739.738-1.214 5.918-4.363 11.5-3.133 5.59-5.695 11.828-5.695 13.871 0 2.594-3.379 3.54-11.137 3.102-6.113-.348-11.133.449-11.133 1.754 0 1.32 2.653 2.39 5.918 2.39 4.926 0 5.332.684 2.434 4.176-2.844 3.422-2.656 4.176 1.043 4.176.285.012.566-.008.851-.055a4.34 4.34 0 0 0 2.836-1.738q.252-.347.434-.735.182-.387.281-.804.102-.417.121-.844a4.1 4.1 0 0 1 .325-1.594q.158-.38.386-.718c.153-.23.324-.438.52-.633q.288-.292.629-.52a4.1 4.1 0 0 1 1.504-.625c.265-.054.539-.082.812-.086 2.29 0 4.176 1.25 4.176 2.785q.047.6.324 1.133c.18.356.426.664.727.922a3.035 3.035 0 0 0 2.195.727c1.781 0 2.402-.84 1.375-1.868-1.012-1.015.016-4.71 2.293-8.207 2.566-3.898 3.101-6.988 1.418-8.03m-11.117-43.129c-2.274-4.258-2.117-5.566.699-5.566 2.023 0 3.867 2.512 4.098 5.566.23 3.059-.082 5.57-.696 5.57-.62 0-2.465-2.511-4.101-5.57m5.566 18.094c-1.535.941-2.781.465-2.781-1.059a6 6 0 0 1 .871-2.574 6 6 0 0 1 1.91-1.933c1.535-.942 2.785-.465 2.785 1.058a6 6 0 0 1-.875 2.574 6 6 0 0 1-1.91 1.934m14.426-21.95q.475.33.793.813c.21.325.355.676.426 1.055a2.92 2.92 0 0 1-.45 2.18c-2.25 3.636-3.132 3.23-3.132-1.465 0-2.219 1.054-3.395 2.363-2.582m-8.828 6.641q2.671-4.176 2.707-.695a3.833 3.833 0 0 0 1.332 2.559q.563.486 1.273.726.708.236 1.457.196a7.2 7.2 0 0 1 3.18.734 7.3 7.3 0 0 1 2.547 2.047c.941 1.535 1.332 2.64.851 2.45-.464-.177-4.257-1.118-8.433-2.087-5.902-1.367-6.988-2.683-4.914-5.93m0 0"/><path fill="#d00000" d="M1177.563 756.629q0 .217-.11.43-.105.21-.316.41a3 3 0 0 1-.516.379 5 5 0 0 1-.691.332q-.388.15-.844.273-.457.116-.961.203-.508.082-1.047.121a12 12 0 0 1-1.086.043c-.363 0-.726-.011-1.086-.043a13 13 0 0 1-1.043-.12c-.336-.06-.66-.126-.96-.204a8 8 0 0 1-.844-.273 4.6 4.6 0 0 1-.696-.332 2.8 2.8 0 0 1-.511-.38 1.5 1.5 0 0 1-.317-.41.9.9 0 0 1-.11-.43q0-.212.11-.425.105-.21.317-.41.205-.202.511-.379.304-.18.696-.332.386-.152.843-.273c.301-.079.625-.149.961-.204s.688-.093 1.043-.125q.54-.04 1.086-.039.551-.001 1.086.04.539.044 1.047.124.504.084.96.204.458.122.845.273t.691.332c.203.117.375.246.516.379q.21.2.316.41c.074.14.11.285.11.426M1367.602 758.586c9.824-1.027 10.363-1.23 10.363-3.754 0-2.785-13.38-.738-15.277 2.332-.7 1.149 1.507 1.785 4.914 1.422M1533.328 753.371q-.48.322-.797.809-.315.486-.422 1.054-.11.57.008 1.133.118.568.442 1.047c2.25 3.637 3.132 3.234 3.132-1.465 0-2.215-1.058-3.394-2.363-2.578M807.758 748.96c-3.867.075-3.75.712.844 4.177 6.753 5.101 7.336 5.101 5.336-.086a7 7 0 0 0-1.04-1.649 6.94 6.94 0 0 0-3.218-2.125c-.625-.199-1.266-.3-1.922-.316M993.855 750.266a6 6 0 0 0-1.906 1.937 6 6 0 0 0-.875 2.574c0 1.52 1.246 2 2.781 1.055a6 6 0 0 0 1.91-1.934 6 6 0 0 0 .876-2.574c0-1.523-1.246-2-2.786-1.058M1239.492 734.797c3.45-2.867 4.754-5.262 2.914-5.32-1.84-.04-6.496 3.046-10.324 6.87-7 7.02-11.781 9.34-8.594 4.176.942-1.535.39-2.78-1.234-2.78-.441.062-.86.21-1.246.437-.39.226-.719.515-.996.87q-.41.534-.59 1.184-.186.65-.11 1.317c0 2.207-2.652 3.672-6.261 3.484-4.711-.25-6.469 1.375-7.078 6.621-.477 4.063.105 5.63 1.394 3.79 1.2-1.759 5.64-2.817 9.844-2.337 4.203.465 8.465-.492 9.48-2.132 1.16-1.868.493-2.133-1.812-.711-2.48 1.535-2.973 1.172-1.535-1.145q.48-.706 1.168-1.21.687-.511 1.496-.77a5.14 5.14 0 0 1 3.32.066c2.32.883 3.902-.273 3.902-2.84 0-2.39 2.813-6.699 6.262-9.57M779.012 752.543c-2.215.887-1.563 1.55 1.687 1.68 2.926.117 4.578-.535 3.649-1.461-.926-.93-3.32-1.02-5.336-.219M796.238 750.266c-1.539-.942-2.785-.387-2.785 1.234q-.013.57.192 1.098.203.531.593.945.391.415.91.648c.348.153.707.239 1.09.25 1.535 0 2.782-.55 2.782-1.23 0-.668-1.247-2-2.782-2.945M1358.887 740.523c-2.84 0-8.64 10.325-6.813 12.149q.37.328.828.527a3.14 3.14 0 0 0 2.856-.18c2.77-1.71 5.476-12.496 3.129-12.496M1485.824 746.281c-5.742-.105-10.441 1.059-10.441 2.594 0 3.32 7.57 3.32 15.308 0 4.465-1.914 3.508-2.434-4.867-2.594M505.313 730.492c.789.047 1.546.227 2.277.531a6.93 6.93 0 0 1 3.406 3.105q.562 1.048.738 2.22c.727 4.48.352 4.77-1.882 1.48-1.536-2.262-3.637-3.25-4.668-2.215-3.407 3.403 1.101 10.016 7.668 11.278 3.539.68 7.523 1.39 8.87 1.605 1.337.203 1.032-1.3-.679-3.363-1.695-2.043-2.277-4.551-1.262-5.567 1-.996.29-1.824-1.593-1.824-1.915 0-3.043-2.625-2.551-5.972.883-6.075-.09-6.57-17.688-8.95-5.363-.722-7.004.047-5.957 2.785 1.45 3.786 3.016 4.364 13.32 4.887M1172.922 741.64c1.277-3.68 3.683-6.683 5.336-6.683 1.652 0 2.289-.723 1.402-1.61-.898-.898-4.808.466-8.695 3.016-5.64 3.696-6.395 5.395-3.723 8.309 2.723 2.973 3.793 2.39 5.68-3.031M1371.703 745.742c-.379-1.726 1.074-3.765 3.235-4.55 2.68-.973 3.378-.028 2.214 2.984-1.14 2.988-.465 3.945 2.13 2.945 8.788-3.363 6.425-8.496-4.087-8.902-9.304-.364-10.437.261-9.16 5.117 1.496 5.715 6.914 8.004 5.668 2.406M1454.508 746.09a5.9 5.9 0 0 0 1.851 1.887 5.85 5.85 0 0 0 2.485.898c.36-.012.699-.09 1.027-.238.328-.145.613-.352.86-.61a2.8 2.8 0 0 0 .562-.894 2.8 2.8 0 0 0 .176-1.043c0-1.535-1.957-2.781-4.336-2.781-2.39 0-3.567 1.246-2.625 2.78M770.027 735.945c-4.859.29-5.96 1.317-3.972 3.727q.621.685 1.414 1.164.791.48 1.687.719a6.434 6.434 0 0 0 3.625-.102c6.352-2.437 4.594-5.945-2.754-5.508M859.73 741.406c-2.214.887-1.562 1.551 1.684 1.684 2.93.117 4.582-.535 3.652-1.465-.925-.926-3.32-1.027-5.336-.219M1426.836 739.047c6.781 5.113 6.797 5.113 6.797.086 0-2.434-2.54-4.176-6.106-4.176-5.957 0-5.968.086-.691 4.09M1185.91 740.523a2.76 2.76 0 0 0 1.969-.816 2.757 2.757 0 0 0 .816-1.965 2.76 2.76 0 0 0-.816-1.969 2.76 2.76 0 0 0-1.969-.816 2.76 2.76 0 0 0-1.965.816 2.76 2.76 0 0 0-.816 1.97 2.76 2.76 0 0 0 .816 1.964q.387.394.903.606.51.21 1.062.21M1441.824 740.523c6.715 0 7.39-1.55 1.637-3.753-2.246-.868-4.824-.375-5.727 1.085-.914 1.465.93 2.668 4.09 2.668M611.27 717.3c-2.696-1.027-3.883-.624-2.899.985a7.7 7.7 0 0 0 2.723 2.059 7.6 7.6 0 0 0 3.34.695c3.68 0 3.78.7.636 4.48-2.336 2.801-4.117 3.32-4.758 1.391-1.273-3.84-11.695-4.113-11.695-.305 0 1.54 2.012 2.786 4.477 2.786 2.539 0 3.855 1.582 3.058 3.652-.996 2.613.797 3.336 6.32 2.523 4.813-.707 7.567-2.738 7.368-5.437a5.9 5.9 0 0 1 .164-1.766 5.8 5.8 0 0 1 .695-1.629 5.74 5.74 0 0 1 2.664-2.273c2.348-.824 3.102-.129 1.914 1.781-1.148 1.856-.047 3.149 2.664 3.149 2.524 0 5.246-2.48 6.032-5.493 1.144-4.363 2.492-4.941 6.523-2.785 6.957 3.723 8.32 3.418 6.438-1.465-.871-2.289-4.598-4.175-8.262-4.175-3.652 0-6.656-1.215-6.656-2.696 0-1.48-2.059-1.898-4.563-.941-4.121 1.578-4.078 2.117.531 5.48 4.73 3.45 4.555 3.723-2.304 3.723-5.801 0-7.059-1.055-5.84-4.867 1.23-3.817.969-4.031-1.203-.988a6.47 6.47 0 0 1-3.34 2.257 6.4 6.4 0 0 1-2.024.25 6.6 6.6 0 0 1-2.003-.39M1479.328 737.523c2.93.118 4.582-.535 3.652-1.464-.925-.926-3.32-1.028-5.335-.22-2.215.888-1.563 1.552 1.683 1.684M1489.3 737.742c1.536 0 2.786-.55 2.786-1.234 0-.668-1.25-2-2.785-2.942-1.535-.941-2.781-.39-2.781 1.23a2.9 2.9 0 0 0 .187 1.102q.205.529.598.946.387.41.91.644.517.236 1.086.254M417.465 728.234c-.64-.652-4.293.649-8.121 2.899l-6.957 4.058 6.957-1.855c7.758-2.059 9.844-3.379 8.12-5.102M854.078 731.566c-5.973 2.926-5.824 3.086 2.668 2.668 5.727-.289 8.047-1.422 6.352-3.117s-4.973-1.523-9.02.45M1374.516 732.465c2.668.957 5.683.418 6.71-1.188 1.278-1.972 3.32-1.726 6.262.723 4.758 3.945 5.801 1.133 1.871-5.059-2.07-3.277-3.738-3.277-11.058-.03-7.051 3.116-7.742 4.132-3.785 5.554M1455.902 728.797c0-1.535-1.886-2.059-4.175-1.188-2.29.883-4.176.188-4.176-1.55 0-1.743-.653-2.508-1.465-1.711-.797.808-.695 3.433.234 5.855 1.77 4.594 9.582 3.438 9.582-1.406M1289.46 708.313c-13.48.171-15.628.828-12.581 3.886 2.016 2.012 3.71 5.145 3.754 6.957.043 1.801 1.363 1.086 2.918-1.593 3.39-5.817 18.77-6.63 20.89-1.102.852 2.246 4.434 3.363 8.957 2.77 4.13-.555 5.622-.208 3.332.78-7.015 2.985-11.148 7.106-9.613 9.583.801 1.304 4.293 1.289 7.774-.028 3.464-1.32 8.117-1.406 10.336-.175 2.492 1.379 5.55.566 8.058-2.145 3.567-3.871 3.332-4.176-2.09-2.754-7.203 1.887-11.316-2.699-4.707-5.23 2.492-.961 7.68-.063 11.508 1.996 6.508 3.48 6.652 3.972 2.074 7.32-2.707 1.973-3.523 3.598-1.797 3.598 1.711 0 4.786-1.668 6.817-3.7 2.027-2.042 5.07-3.246 6.738-2.695s4.379-.61 6.031-2.593c2.348-2.84.813-3.598-7.25-3.567-8.03.027-10.132-1.016-9.828-4.84.461-5.96-4.148-6.25-12.031-.726-5.191 3.64-6.887 3.652-13.687.113-6.477-3.348-6.985-4.32-3.043-5.828 6.164-2.375 5.972-5.914-.493-9.38-3.609-1.929-7.453-1.737-12.511.599-9.41 4.379-9.57 8.273-.204 4.707 10.047-3.813 14.336-3.578 10.192.566-1.797 1.797-10.594 3.363-19.543 3.48M1360.031 726.605c-.664 0-2 1.25-2.941 2.786-.942 1.535-.39 2.785 1.234 2.785q.569.013 1.102-.192.528-.2.945-.593a2.88 2.88 0 0 0 .895-2c0-1.536-.551-2.786-1.235-2.786M1466.34 732.129c3.45.031 6.262-1.203 6.262-2.738 0-3.493-2.957-3.493-8.352 0-3.375 2.191-2.973 2.71 2.09 2.738M1408.41 728.434c15.961-.899 18.7-2.418 12.942-7.188-2.91-2.41-5.59-2.555-9.438-.496-2.969 1.582-6.113 2.148-7.012 1.25-.882-.887-3.613.375-6.047 2.813-4.043 4.039-3.23 4.347 9.555 3.62M1238.477 711.398c4.523-1.433 5.984-1.128 4.683.989a7.2 7.2 0 0 1-2.445 2.183 7.2 7.2 0 0 1-3.152.903c-2.028 0-4.333 2.511-5.145 5.566-.945 3.629-.086 5.566 2.46 5.566a4 4 0 0 0 1.536-.363 4 4 0 0 0 1.281-.918q.55-.584.836-1.34c.192-.5.278-1.015.266-1.55 0-2.293 1.246-4.176 2.781-4.176.363-.004.715.058 1.05.195q.508.198.9.578a2.73 2.73 0 0 1 .835 1.926c0 1.477 2.13 1.879 4.723.883 2.96-1.149 3.48-2.235 1.394-2.93-6.058-2.031-3.464-5.726 2.93-4.176l6.262 1.54-5.567-5.614c-3.058-3.086-6.812-5.043-8.351-4.363-1.535.683-.348-.738 2.625-3.145 5.176-4.191 5.016-4.379-3.652-4.379-5.567 0-8.352 1.118-7.247 2.899.98 1.61.13 4.914-1.902 7.367-3.262 3.926-2.914 4.2 2.899 2.36M1433.98 721.738c3.465-4.422 3.38-4.508-1.039-1.047-2.683 2.09-4.875 4.293-4.875 4.875 0 2.29 2.29.813 5.914-3.828M512.664 721.246c4.219 2.61 8.77.492 6.582-3.062-.84-1.364-3.465-1.723-5.844-.809-3.379 1.285-3.535 2.145-.738 3.871M497.023 718.258a483 483 0 0 0 6.102 2.594c.29.105 1.305-1.059 2.246-2.594 1.004-1.621-1.55-2.7-6.105-2.594-6.868.172-7.145.492-2.243 2.594M848.277 717.414c1.032-3.957 2.133-4.336 5.223-1.781a8.6 8.6 0 0 0 3.672 1.808 8.7 8.7 0 0 0 4.094-.05 7 7 0 0 1 1.82-.317 7.1 7.1 0 0 1 5.086 1.867c2.187 2.184 3.535 1.735 4.812-1.597.97-2.54 2.899-3.93 4.258-3.086 1.38.851 2.496.215 2.496-1.406a2.9 2.9 0 0 0-.191-1.102 2.85 2.85 0 0 0-1.504-1.59 2.8 2.8 0 0 0-1.09-.254c-4.098 0-3.375-5.363 1.379-10.12 2.273-2.29 5.594-3.247 7.379-2.157 2.016 1.246 2.492.797 1.246-1.203-1.09-1.77-.648-3.219.973-3.219.351.031.699-.004 1.035-.11.34-.105.648-.265.922-.492a2.7 2.7 0 0 0 .984-1.793c0-3.882-14.234-.023-15.887 4.293-1.043 2.727-3.93 3.422-9.25 2.262-4.757-1.043-8.539-.402-9.828 1.68-1.492 2.41-.336 2.93 4.028 1.785 5.234-1.36 5.859-.727 4.32 4.438-1.567 5.246-1.3 5.48 1.973 1.824 2.074-2.32 3.464-3.68 3.101-3.043-.375.64.727 2.855 2.422 4.898 1.71 2.059 2.64 3.84 2.074 3.977-8.078 1.793-14.383.898-15.586-2.235q-.253-.75-.77-1.347a3.9 3.9 0 0 0-1.226-.95 3.9 3.9 0 0 0-1.492-.414 3.95 3.95 0 0 0-1.54.188c-5.03 1.93-7.35-1.273-3.929-5.406 2.028-2.453 1.899-4.106-.449-5.57-2.133-1.301-2.625-.883-1.363 1.148 1.086 1.765.664 3.219-.942 3.219-2.379 0-2.41 13.074-.058 19.48.289.77 1.101-.867 1.808-3.625M572.059 715.664a2.9 2.9 0 0 0 .453-2.172 2.9 2.9 0 0 0-.418-1.05q-.315-.48-.79-.81c-3.566-2.218-14.585 1.348-12.859 4.161 2.016 3.246 11.567 3.164 13.614-.129M1013.387 711.328c-1.551-.957-2.828.203-2.828 2.594 0 4.887 1.664 5.613 4.058 1.742a3.3 3.3 0 0 0 .38-1.184 3.196 3.196 0 0 0-.668-2.344 3.2 3.2 0 0 0-.942-.808M1390.941 716.172q.575-1.694.575-3.48 0-1.789-.575-3.477c-.77-1.918-1.406-.352-1.406 3.476 0 3.825.637 5.391 1.406 3.48M1402.363 713.254q.323-.738.84-1.36a5.55 5.55 0 0 1 2.64-1.746 5.6 5.6 0 0 1 1.583-.242c2.172 0 3.926-2.187 3.894-4.867-.027-2.945-.851-3.687-2.082-1.887a17.14 17.14 0 0 1-7.09 4.856c-3.046 1.117-4.234 3.191-2.972 5.219 1.605 2.609 2.332 2.609 3.187.027M640.09 712.691c2.887 0 7.074-5.293 5.422-6.859-.535-.52-2.582.828-4.567 2.957-1.972 2.145-2.347 3.902-.855 3.902M1263.746 701.746c-2.144 4.016-1.973 5.395.695 5.422 2.551.031 2.38.883-.593 3-3.711 2.621-3.711 2.812 0 1.754a5.248 5.248 0 0 0 2.766-2.418q.456-.837.59-1.774.133-.942-.067-1.867c-.508-2.855.336-4.117 2.058-3.058 1.973 1.23 2.149-.274.567-4.582-1.305-3.524-4.727-6.653-7.625-6.946-4.465-.449-4.524-.316-.375.903 5.68 1.68 5.824 2.39 1.984 9.566M610.91 709.688c2.93.12 4.578-.536 3.653-1.461-.93-.93-3.32-1.028-5.336-.22-2.215.888-1.563 1.552 1.683 1.68M620.723 709.906q.568.018 1.101-.187a2.87 2.87 0 0 0 1.594-1.508c.152-.344.238-.707.246-1.086 0-1.54-.547-2.785-1.23-2.785-.668 0-2 1.246-2.942 2.785-.945 1.535-.39 2.781 1.23 2.781M1133.492 706.469c3.36-5.29 2.781-7.696-1.855-7.696-4.262 0-5.7 5.903-2.278 9.325 1.043 1.043 2.899.3 4.133-1.63M690.527 704.008c12.465-4.223 14.887-6.598 4.114-4.031-4.594 1.086-9.567 3.175-11.075 4.64-1.492 1.465 1.637 1.188 6.961-.61M1012.11 707.125c2.394 0 3.566-1.25 2.624-2.785a5.93 5.93 0 0 0-4.336-2.781q-.54.011-1.027.234a2.7 2.7 0 0 0-.86.613 2.7 2.7 0 0 0-.738 1.934c0 1.535 1.957 2.785 4.336 2.785m0 0"/><path fill="#d00000" d="M1286.957 705.207c1.621-.996.242-2.766-3.148-4.016-3.32-1.23-6.047-3.734-6.047-5.578 0-1.828-.824-2.508-1.84-1.492s.406 4.32 3.16 7.352c2.742 3.043 6.293 4.722 7.875 3.734M994.555 704.121c4.203.133 7.652-1.098 7.652-2.723 0-1.62-1.246-2.175-2.781-1.234-1.54.957-2.785.406-2.785-1.215 0-.39-.075-.77-.223-1.129a2.943 2.943 0 0 0-1.594-1.602 2.9 2.9 0 0 0-1.125-.23c-1.625 0-2.246 1.149-1.379 2.555.871 1.402 0 3.176-1.93 3.957-1.91.77-.038 1.508 4.165 1.621M1144.973 698.82c-.797-3.047-2.493-4.89-3.785-4.09-1.29.797-1.653 3.29-.782 5.536 2.364 6.132 6.235 4.902 4.567-1.446M1332.04 703.414c2.288 0 4.175-1.043 4.175-2.32 0-1.278-1.887-2.32-4.176-2.32s-4.176 1.042-4.176 2.32 1.887 2.32 4.176 2.32M922.344 697.207c4.468-1.71 3.191-12.352-1.477-12.352-1.523 0-1.988 2.016-1.031 4.48 1.234 3.22.52 4.032-2.492 2.868-4.266-1.637-5.742 1.324-2.348 4.715 2.242 2.246 2.23 2.246 7.348.289M765.777 695.988q.493.031.957-.133a2.48 2.48 0 0 0 1.418-1.253q.216-.439.25-.93c0-1.277-1.824-2.32-4.058-2.32-2.219 0-3.41 1.043-2.61 2.32a5.25 5.25 0 0 0 1.754 1.625q1.066.61 2.29.691M1251.09 695.773c2.93.118 4.582-.535 3.652-1.464-.926-.926-3.32-1.028-5.336-.22-2.215.888-1.562 1.552 1.684 1.684M952.105 693.207a2.76 2.76 0 0 0 1.97-.816q.389-.393.605-.903.21-.51.21-1.066 0-.552-.21-1.063a2.8 2.8 0 0 0-.606-.906 2.8 2.8 0 0 0-.902-.601q-.51-.211-1.067-.211-.551 0-1.062.21-.515.213-.906.602a2.79 2.79 0 0 0-.813 1.969q0 .556.211 1.066a2.796 2.796 0 0 0 2.57 1.719M1152.352 693.207c1.101 0 2.015-1.664 2.015-3.71a3.5 3.5 0 0 0-.226-1.38 3.615 3.615 0 0 0-1.867-2.008c-.43-.199-.883-.304-1.36-.324-1.879 0-2.797 1.668-2.016 3.711.786 2.043 2.336 3.711 3.454 3.711M1237.52 689.496c4.699 0 5.101-.883 1.464-3.133a2.9 2.9 0 0 0-1.043-.441 2.9 2.9 0 0 0-1.136-.008 2.88 2.88 0 0 0-1.864 1.219c-.812 1.304.364 2.363 2.579 2.363m0 0"/></svg>