<svg xmlns="http://www.w3.org/2000/svg" viewBox="4.31 676.16 1528.77 181.67"><defs><clipPath id="a"><path d="M4 676.16h1530V858H4Zm0 0"/></clipPath></defs><g clip-path="url(#a)"><path fill="#5ba3f8" d="M1532.895 755.195c-2.07-37.629-72.598-46.074-101.79-51.734-26.187-4.234-52.218-7.211-78.234-9.742-181.219-16.078-362.902-17.168-544.476-17.559-259.575-.027-518.965 22.653-776.497 52.43-17.34 2.055-29.668 17.992-27.296 35.293 2.328 17.164 18.191 29.176 35.343 26.77 254.723-33.708 511.914-60.489 768.946-64.684 180.105-2.582 360.855-4.473 540.386 8.465 30.871 2.593 61.743 5.484 92.043 10.808-98.488 4.754-197.668 6.91-296.332 11.887-52.086 2.715-103.777 5.387-155.781 11.715-13.133 1.726-26.164 3.547-39.934 6.957-12.058 3.066-29.925 8.828-28.843 24.804 1.976 14.297 17.586 16.036 28.289 17.653 13.613 1.812 26.5 2.703 39.515 3.672 115.657 7.289 231.98 15.058 345.625 35.746 14.23 2.097 17.73-18.262 4.032-21.313-107.645-22.14-217.172-30.285-326.106-40.234 18.988-1.676 38.172-2.86 57.356-3.895 129.105-6.664 257.98-6.203 387.367-10.629 16.472-.734 33.277-1.28 50.094-3.359 8.457-1.34 16.066-2.129 22.402-10.043 2.504-.613 4.73-14.086 3.89-13.008m-27.168-15.261c.074-.024.101-.028.101-.028zm0 0"/></g></svg>